<?xml version="1.0" encoding="utf-8"?>
<!-- Generator: Adobe Illustrator 27.5.0, SVG Export Plug-In . SVG Version: 6.00 Build 0)  -->
<svg version="1.1" xmlns="http://www.w3.org/2000/svg" xmlns:xlink="http://www.w3.org/1999/xlink" x="0px" y="0px"
	 viewBox="0 0 3710 3710" style="enable-background:new 0 0 3710 3710;" xml:space="preserve">
<g id="Background">
	<g>
		<g>
			<rect style="fill:#FFFFFF;" width="3710" height="3710"/>
		</g>
	</g>
</g>
<g id="Illustration">
	<g>
		<path style="fill:#F4F7FA;" d="M3145.614,1307.219c95.782-666.573-545.074-920.649-1010.609-764.698
			c-469.312,157.218-567.223-132.63-1221.773-72.594c-662.765,60.789-362.25,1108.01-362.25,1108.01
			s74.949,904.404,185.508,1323.819c109.959,417.148,1299.436,307.251,1587.992,304.542
			c286.896-2.694,535.048,29.268,799.439-415.902C3387.827,2346.035,3050.148,1971.582,3145.614,1307.219z"/>
		<g>
			<path style="fill:#D8DEE8;" d="M1959.569,1146.863c0,0,128.258,43.265,141.89,266.899c-20.973-1.749-69.871,0-69.871,0
				s9.056-162.634-82.178-194.229C1956.75,1200.575,1959.569,1146.863,1959.569,1146.863z"/>
			<path style="fill:#97A6B7;" d="M1488.981,1133.436c3.198,40.717,6.394,81.432,9.593,122.149
				c63.383-18.285,132.698-39.499,207.214-43.398c96.886-5.069,185.686,6.217,264.774,25.839
				c3.517-5.141,10.969-17.502,14.407-37.634c5.537-32.438-3.736-59.36-5.455-64.157c-40.287-14.95-83.975-27.483-130.787-36.018
				C1714.494,1075.744,1593.197,1100.02,1488.981,1133.436z"/>
			<path style="fill:#818E9B;" d="M1483.008,1168.714c0.188-14.728,1.248-33.117,5.973-35.279
				c4.45-2.036,10.433,11.28,13.005,18.679c1.072,3.08,3.433,10.543,4.909,34.306c1.904,30.636-0.315,45.653-2.348,54.927
				c-1.222,5.575-3.13,14.024-5.973,14.236c-2.282,0.171-4.266-5.164-7.222-15.49
				C1487.371,1226.183,1482.57,1202.976,1483.008,1168.714z"/>
			<path style="fill:#D8DEE8;" d="M1366.189,1426c26.574,5.267,91.187,21.022,91.187,21.022s-42.128-143.036,37.303-209.058
				c2.057-10.806,4.146-27.959,1.636-48.578c-1.942-15.95-5.993-28.692-9.49-37.52
				C1453.102,1172.024,1379.694,1239.838,1366.189,1426z"/>
			<path style="fill:#818E9B;" d="M816.583,1463.683c0,0,3.252-75.114,114.071-75.114c17.452,13.692,18.324,75.114,18.324,75.114
				H816.583z"/>
			<path style="fill:#97A6B7;" d="M718.181,2940.34l303.28,197.973l183.757-727.052l-302.78-974.719l-85.856,27.142
				l-130.27,1399.871C683.363,2895.242,696.098,2925.923,718.181,2940.34z"/>
			<path style="opacity:0.2;fill:#97A6B7;" d="M1205.219,2411.259l-302.78-974.718l-85.855,27.142
				c21.14,86.025,31.277,226.116,36.047,304.1c20.298,331.861,87.708,424.211,55.052,655.723
				c-27.153,192.5-86.449,218.627-81.267,348.14c5.646,141.054,81.949,259.173,172.668,352.06l22.378,14.606L1205.219,2411.259z"/>
			<polygon style="fill:#D8DEE8;" points="902.438,1436.541 2567.689,1436.542 2829.859,2981.569 1021.461,3138.313 			"/>
			<g>
				<path style="fill:#D8DEE8;" d="M2567.689,1436.541h-560.988c-10.331,31.656-26.124,75.458-49.178,125.016
					c-250.88,539.306-825.204,607.264-814.83,695.894c15.51,132.477,1294.437-55.56,1327.091,126.473
					c15.762,87.874-254.307,287.626-536.519,363.26c-337.9,90.557-586.21-23.574-751.359,179.898
					c-55.919,68.894-80.603,149.602-92.628,204.184l1740.579-149.695L2567.689,1436.541z"/>
			</g>
			<path style="fill:#97A6B7;" d="M930.654,1388.57c-18.761,0-44.989-2.52-73.516,15.535c-6.09,3.854-11.468,8.096-16.186,12.405
				l13.132-5.033c21.126-6.678,50.257,2.21,61.136,25.065c13.37,28.088,18.183,93.083,21.106,125.279
				c8.315,91.581,59.422,661.404,59.422,661.404c3.829,48.045,37.66,84.43,77.643,83.503l1549.018-86.876
				c11.764-0.272,23.389-4.228,33.095-12.252c20.251-16.74,29.4-45.781,24.704-73.371l-78.475-678.655
				c-6.637-39.006-35.083-67.003-68.075-67.003H930.654z"/>
			<linearGradient id="SVGID_1_" gradientUnits="userSpaceOnUse" x1="859.3151" y1="1847.3955" x2="2715.448" y2="1847.3955">
				<stop  offset="0.494" style="stop-color:#EBEFF2"/>
				<stop  offset="1" style="stop-color:#FFFFFF"/>
			</linearGradient>
			<path style="fill:url(#SVGID_1_);" d="M947.233,1388.57c-18.76,0-41.012-2.764-65.812,4.414
				c-6.687,1.936-17.387,5.485-22.106,9.794c0,0,52.578-13.549,72.484,33.764c12.152,28.883,18.183,93.083,21.106,125.279
				c8.315,91.581,59.422,661.404,59.422,661.404c3.829,48.045,37.66,84.43,77.643,83.503l1566.47-36.323
				c11.764-0.272,23.389-4.228,33.095-12.252c20.252-16.741,29.4-45.781,24.704-73.371l-95.927-729.208
				c-6.637-39.006-35.083-67.003-68.075-67.003H947.233z"/>
			<path style="opacity:0.2;fill:#97A6B7;" d="M2714.24,2184.781l-95.926-729.208c-6.637-39.006-35.083-67.003-68.076-67.003
				H947.234c-18.761,0-41.011-2.765-65.813,4.414c-6.687,1.936-17.387,5.485-22.106,9.794c0,0,52.579-13.549,72.485,33.764
				c1.915,4.552,3.662,10.053,5.283,16.096c152.235,6.496,304.468,1.821,456.701,12.421
				c300.937,20.406,605.254,20.406,889.284,151.001c90.853,41.774,153.138,191.855,128.49,261.191
				c-17.772,49.992-78.421,46.033-99.586,111.639c-22.257,68.997,31.112,115.877,8.726,164.297
				c-23.463,50.749-94.721,26.572-210.077,62.796c-63.557,19.959-112.307,49.4-142.754,70.389l688.573-15.967
				c11.764-0.273,23.389-4.228,33.095-12.252C2709.787,2241.411,2718.935,2212.37,2714.24,2184.781z"/>
			<g>
				<path style="fill:#97A6B7;" d="M1962.668,2421.11l-196.881,39.612l-19.926,0.458c-19.916,0.458-36.979-20.042-37.901-45.558
					l-8.711-241.307c-0.922-25.535,14.646-46.668,34.578-46.96l19.992-0.293l197.608,28.768
					c19.692-0.169,36.394-11.443,37.298,13.907l8.551,239.568C1998.181,2434.637,1982.351,2420.525,1962.668,2421.11z"/>
				<path style="fill:#D8DEE8;" d="M1978.287,2457.173l-218.53,4.968c-20.027,0.455-37.183-20.105-38.105-45.691l-8.731-241.974
					c-0.924-25.606,14.733-46.797,34.775-47.09l218.696-3.195c19.812-0.289,36.748,20.278,37.655,45.702l8.571,240.269
					C2013.524,2435.57,1998.083,2456.723,1978.287,2457.173z"/>
				<path style="opacity:0.2;fill:#D8DEE8;" d="M1978.287,2457.173l-218.53,4.968c-20.027,0.455-37.183-20.105-38.105-45.691
					l-8.731-241.974c-0.924-25.606,14.733-46.797,34.775-47.09l218.696-3.195c19.812-0.289,36.748,20.278,37.655,45.702
					l8.571,240.269C2013.524,2435.57,1998.083,2456.723,1978.287,2457.173z"/>
			</g>
		</g>
		<g>
			<g>
				
					<linearGradient id="SVGID_00000110454142392347213670000001533880733369866425_" gradientUnits="userSpaceOnUse" x1="1267.5227" y1="375.9497" x2="1140.3241" y2="1764.0712">
					<stop  offset="0" style="stop-color:#311944"/>
					<stop  offset="1" style="stop-color:#893976"/>
				</linearGradient>
				<path style="fill:url(#SVGID_00000110454142392347213670000001533880733369866425_);" d="M1186.8,584.94
					c-371.103,0-671.94,300.837-671.94,671.94s300.837,671.941,671.94,671.941s671.941-300.837,671.941-671.941
					S1557.903,584.94,1186.8,584.94z M1186.8,1813.633c-307.486,0-556.753-249.267-556.753-556.753S879.314,700.128,1186.8,700.128
					s556.753,249.267,556.753,556.753S1494.286,1813.633,1186.8,1813.633z"/>
			</g>
			
				<linearGradient id="SVGID_00000159471948160465978480000012938597599503436215_" gradientUnits="userSpaceOnUse" x1="1256.8038" y1="1143.8717" x2="888.7923" y2="2719.5879">
				<stop  offset="0" style="stop-color:#FF9085"/>
				<stop  offset="1" style="stop-color:#FB6FBB"/>
			</linearGradient>
			
				<circle style="fill:url(#SVGID_00000159471948160465978480000012938597599503436215_);" cx="1233.45" cy="1243.867" r="586.748"/>
			<g>
				<path style="fill:#F4F7FA;" d="M1242.503,806.577L1242.503,806.577c14.953,1.422,27.055,14.882,27.055,30.068v51.827
					c29.898,3.338,59.839,8.536,89.823,15.583c22.107,5.196,44.066,11.381,65.878,18.552c13.069,4.297,21.974,17.492,20.641,31.102
					l-6.365,64.989c-1.689,17.242-18.733,27.368-34.779,20.213c-14.367-6.407-29.097-11.895-44.195-16.464
					c-26.344-7.971-54.125-13.168-83.36-15.578l-7.644-0.629v148.425c78.001,21.823,135.286,51.181,172.306,88.108
					c36.842,36.749,55.197,82.551,55.197,137.534c0,59.46-20.294,107.073-61.043,142.982c-40.967,36.1-98.403,56.404-172.677,60.799
					v57.202c0,15.192-12.111,27.025-27.077,26.431l-0.479-0.019c-14.995-0.596-27.173-13.438-27.173-28.683v-56.428l-12.054-0.544
					c-34.819-1.571-68.171-5.123-100.037-10.665c-23.599-4.105-46.644-9.404-69.13-15.899c-13.599-3.928-22.935-16.883-21.687-30.8
					l7.489-83.542c1.619-18.06,19.76-28.57,36.933-21.795c20.017,7.896,40.284,14.547,60.799,19.957
					c31.969,8.431,64.372,13.838,97.204,16.24l0.482-165.104c-74.873-18.526-130.929-45.968-167.757-82.315
					c-37.001-36.519-55.567-83.254-55.567-140.076c0-58.805,20.131-104.196,60.242-136.052
					c39.906-31.696,96.636-47.464,169.824-47.424v-52.985C1215.354,816.348,1227.52,805.152,1242.503,806.577z M1215.354,1004.702
					c-23.14,1.684-41.184,8.038-54.1,19.073c-12.936,11.054-19.412,25.91-19.412,44.554c0,17.663,5.99,32.427,17.958,44.279
					c11.949,11.833,30.483,21.281,55.554,28.34V1004.702z M1263.341,1303.67v151.406c25.155,0.05,44.444-5.956,57.909-18
					c13.442-12.024,20.155-29.007,20.155-50.966c0-20.022-6.238-36.627-18.73-49.831
					C1310.163,1323.052,1290.404,1312.185,1263.341,1303.67z"/>
			</g>
			<g>
				
					<linearGradient id="SVGID_00000134939533176240385840000005031469219008942214_" gradientUnits="userSpaceOnUse" x1="1313.7008" y1="362.6047" x2="1186.5021" y2="1750.7263">
					<stop  offset="0" style="stop-color:#FF9085"/>
					<stop  offset="1" style="stop-color:#FB6FBB"/>
				</linearGradient>
				<path style="fill:url(#SVGID_00000134939533176240385840000005031469219008942214_);" d="M1232.978,571.595
					c-371.103,0-671.941,300.838-671.941,671.941s300.838,671.94,671.941,671.94s671.941-300.838,671.941-671.94
					S1604.081,571.595,1232.978,571.595z M1232.978,1800.288c-307.486,0-556.753-249.267-556.753-556.753
					s249.267-556.753,556.753-556.753s556.753,249.267,556.753,556.753S1540.464,1800.288,1232.978,1800.288z"/>
			</g>
			
				<linearGradient id="SVGID_00000116930211487187366530000003651871680788370331_" gradientUnits="userSpaceOnUse" x1="1586.245" y1="1118.4048" x2="1459.0453" y2="2506.5374" gradientTransform="matrix(0.7803 0.6254 -0.6254 0.7803 1276.2209 -1224.5046)">
				<stop  offset="0" style="stop-color:#FF9085"/>
				<stop  offset="1" style="stop-color:#FB6FBB"/>
			</linearGradient>
			<polygon style="fill:url(#SVGID_00000116930211487187366530000003651871680788370331_);" points="887.219,1756.672 
				807.388,1692.682 1578.737,730.399 1658.567,794.39 			"/>
			
				<linearGradient id="SVGID_00000034809410495892314800000017104891460508927384_" gradientUnits="userSpaceOnUse" x1="1316.0234" y1="337.2562" x2="1177.8768" y2="1844.8529">
				<stop  offset="0" style="stop-color:#FF9085"/>
				<stop  offset="1" style="stop-color:#FB6FBB"/>
			</linearGradient>
			<path style="opacity:0.3;fill:url(#SVGID_00000034809410495892314800000017104891460508927384_);" d="M1232.977,571.595
				c-371.102,0-671.94,300.838-671.94,671.94c0,371.103,300.838,671.94,671.94,671.94c371.103,0,671.942-300.837,671.942-671.94
				C1904.919,872.432,1604.08,571.595,1232.977,571.595z M676.225,1243.535c0-307.486,249.267-556.753,556.752-556.753
				c113.403,0,218.864,33.936,306.845,92.162l-693.487,865.15C741.465,1542.845,676.225,1400.818,676.225,1243.535z
				 M1232.977,1800.288c-113.402,0-218.864-33.937-306.845-92.162l693.488-865.149c104.87,101.248,170.11,243.276,170.11,400.559
				C1789.73,1551.022,1540.464,1800.288,1232.977,1800.288z"/>
		</g>
		<g>
			<g>
				<path style="fill:#D8DEE8;" d="M2699.731,1234.575c0,0-8.986-8.983-16.589-3.745s-33.896,29.127-43.761,3.271
					c-9.864-25.857-10.636-59.713,8.67-62.06c19.305-2.347,28.139,16.037,38.305,5.123
					C2696.523,1166.249,2705.669,1228.724,2699.731,1234.575z"/>
				<path style="fill:#D8DEE8;" d="M2811.824,1018.025c0,0,8.76-9.203,3.337-16.676c-5.423-7.472-29.951-33.171-4.344-43.667
					c25.607-10.496,59.434-12.098,62.255,7.144c2.82,19.242-15.342,28.524-4.181,38.42
					C2880.051,1013.141,2817.82,1023.818,2811.824,1018.025z"/>
				<path style="fill:#D8DEE8;" d="M2800.378,1357.646c0,0-12.6,1.642-13.085,10.863s2.41,44.627-24.097,36.675
					c-26.508-7.952-53.809-27.989-43.895-44.72c9.914-16.731,29.871-12.519,27.422-27.232
					C2744.274,1318.518,2799.362,1349.371,2800.378,1357.646z"/>
				<path style="fill:#D8DEE8;" d="M2929.06,1018.972c0,0,12.659-1.094,13.545-10.284c0.885-9.191-0.471-44.69,25.666-35.594
					c26.137,9.095,52.543,30.299,41.912,46.584c-10.631,16.285-30.386,11.211-28.578,26.016S2929.716,1027.283,2929.06,1018.972z"/>
				<path style="fill:#D8DEE8;" d="M2971.84,1345.679c0,0-6.276,11.048,0.792,16.988c7.069,5.94,37.079,24.95,14.768,41.323
					c-22.311,16.373-54.749,26.103-62.135,8.113c-7.387-17.99,7.993-31.386-5.228-38.291
					C2906.816,1366.906,2964.622,1341.507,2971.84,1345.679z"/>
				<path style="fill:#D8DEE8;" d="M3060.595,1171.957c0,0,5.837,11.286,14.671,8.601s41.136-17.471,42.691,10.16
					c1.555,27.631-7.981,60.125-27.089,56.505c-19.108-3.62-21.947-23.818-34.946-16.503
					C3042.923,1238.036,3053.162,1175.732,3060.595,1171.957z"/>
				<path style="fill:#D8DEE8;" d="M3017.217,1097.547c0,0,9.504,4.484,13.961-1.718c4.456-6.202,18.254-32.143,33.155-14.768
					c14.901,17.375,24.958,43.517,10.583,50.737s-26.386-4.626-31.252,6.71S3014.229,1103.761,3017.217,1097.547z"/>
				
					<ellipse transform="matrix(0.7071 -0.7071 0.7071 0.7071 0.78 2380.1885)" style="fill:#D8DEE8;" cx="2873.532" cy="1189.153" rx="187.6" ry="187.6"/>
				
					<ellipse transform="matrix(0.7071 -0.7071 0.7071 0.7071 0.814 2383.2495)" style="opacity:0.2;fill:#D8DEE8;" cx="2877.243" cy="1190.642" rx="165.55" ry="165.55"/>
				<path style="fill:#D8DEE8;" d="M2728.695,1115.336c0,0,0.46-12.698-8.553-14.699c-9.014-2.001-44.413-4.99-32.193-29.821
					c12.219-24.831,36.489-48.449,51.353-35.909c14.865,12.54,7.416,31.528,22.332,31.541
					C2776.549,1066.462,2737.023,1115.7,2728.695,1115.336z"/>
				<path style="fill:#D8DEE8;" d="M3018.309,1239.861c0,0,0.411,12.699,9.541,14.078c9.13,1.379,44.65,1.934,34.162,27.544
					c-10.488,25.61-33.081,50.837-48.771,39.345s-9.56-30.945-24.441-29.936C2973.918,1291.902,3009.975,1240.069,3018.309,1239.861
					z"/>
				<path style="fill:#D8DEE8;" d="M2732.49,1205.854c0,0-36.121-5.092-38.084,19.537c-1.963,24.629,8.479,59.941,38.522,52.425
					c30.043-7.516,24.938-33.518,24.938-33.518S2757.09,1209.272,2732.49,1205.854z"/>
				<path style="fill:#D8DEE8;" d="M2833.093,1324.678c0,0-17.312,39.101,2.382,53.988c19.694,14.886,74.361,13.346,55.57-40.202
					C2891.044,1338.464,2868.993,1305.294,2833.093,1324.678z"/>
				<path style="fill:#D8DEE8;" d="M2821.65,1181.186c0,0-37.849,45.772,0.854,62.409c38.703,16.637,58.573-16.925,51.297-39.493
					S2848.354,1165.687,2821.65,1181.186z"/>
				<path style="fill:#D8DEE8;" d="M2923.718,1197.554c0,0,21.739,44.971,48.015,21.207s7.576-50.711-12.227-53.054
					C2939.702,1163.366,2921.222,1171.709,2923.718,1197.554z"/>
				<path style="fill:#D8DEE8;" d="M2837.165,1092.494c0,0,1.251-12.861-5.579-25.282c-6.83-12.421,13.559-33.278,36.326-35.121
					c22.767-1.843,39.208,10.887,32.353,25.123c-6.855,14.236-14.284,25.871-8.95,31.51c5.334,5.639-46.499,19.803-53.998,6.463
					L2837.165,1092.494z"/>
				<path style="fill:#D8DEE8;" d="M2991.344,1143.031c0,0-37.932-33.192-21.068-56.118s34.377-20.151,42.856-10.23
					C3021.61,1086.604,3041.458,1149.004,2991.344,1143.031z"/>
			</g>
			<g>
				<path style="fill:#D8DEE8;" d="M2304.178,983.37c0,0-5.441-5.439-10.045-2.268c-4.604,3.172-20.524,17.636-26.497,1.98
					c-5.973-15.656-6.44-36.156,5.25-37.577c11.689-1.421,17.038,9.71,23.194,3.102
					C2302.236,941.999,2307.774,979.827,2304.178,983.37z"/>
				<path style="fill:#D8DEE8;" d="M2372.05,852.251c0,0,5.304-5.573,2.021-10.097c-3.284-4.524-18.135-20.085-2.63-26.44
					c15.505-6.355,35.987-7.325,37.695,4.326c1.708,11.651-9.289,17.271-2.532,23.263S2375.68,855.758,2372.05,852.251z"/>
				<path style="fill:#D8DEE8;" d="M2365.119,1057.888c0,0-7.629,0.995-7.923,6.577s1.459,27.021-14.591,22.206
					c-16.05-4.815-32.581-16.947-26.578-27.078c6.003-10.13,18.087-7.58,16.604-16.489
					C2331.149,1034.196,2364.504,1052.878,2365.119,1057.888z"/>
				<path style="fill:#D8DEE8;" d="M2443.035,852.824c0,0,7.665-0.662,8.201-6.227c0.536-5.565-0.285-27.059,15.541-21.552
					c15.826,5.507,31.814,18.346,25.377,28.206s-18.398,6.788-17.304,15.753C2475.945,877.968,2443.432,857.856,2443.035,852.824z"
					/>
				<path style="fill:#D8DEE8;" d="M2468.938,1050.642c0,0-3.8,6.689,0.479,10.286c4.28,3.597,22.451,15.107,8.942,25.021
					c-13.509,9.914-33.15,15.805-37.623,4.912c-4.473-10.893,4.84-19.004-3.165-23.185
					C2429.566,1063.495,2464.568,1048.116,2468.938,1050.642z"/>
				<path style="fill:#D8DEE8;" d="M2522.678,945.455c0,0,3.534,6.834,8.883,5.208c5.349-1.626,24.907-10.579,25.849,6.152
					c0.941,16.73-4.833,36.405-16.402,34.213c-11.57-2.192-13.289-14.422-21.159-9.992
					C2511.978,985.465,2518.177,947.74,2522.678,945.455z"/>
				<path style="fill:#D8DEE8;" d="M2496.414,900.4c0,0,5.755,2.715,8.453-1.04c2.698-3.755,11.053-19.462,20.075-8.942
					c9.023,10.52,15.112,26.349,6.408,30.721c-8.704,4.371-15.977-2.801-18.923,4.063
					C2509.48,932.066,2494.604,904.163,2496.414,900.4z"/>
				
					<ellipse transform="matrix(0.7071 -0.7071 0.7071 0.7071 29.8009 1983.6793)" style="fill:#D8DEE8;" cx="2409.413" cy="955.867" rx="113.59" ry="113.59"/>
				
					<ellipse transform="matrix(0.7071 -0.7071 0.7071 0.7071 29.8215 1985.5326)" style="opacity:0.2;fill:#D8DEE8;" cx="2411.661" cy="956.769" rx="100.239" ry="100.239"/>
				<path style="fill:#D8DEE8;" d="M2321.716,911.172c0,0,0.279-7.688-5.179-8.9c-5.458-1.212-26.891-3.022-19.493-18.056
					c7.398-15.035,22.094-29.336,31.094-21.743c9,7.593,4.49,19.09,13.521,19.098
					C2350.691,881.578,2326.759,911.392,2321.716,911.172z"/>
				<path style="fill:#D8DEE8;" d="M2493.855,982.257c0,0,0.249,7.689,5.777,8.524c5.528,0.835,27.035,1.171,20.685,16.678
					c-6.351,15.507-20.031,30.781-29.53,23.823c-9.5-6.958-5.788-18.737-14.799-18.126
					C2466.977,1013.767,2488.809,982.383,2493.855,982.257z"/>
				<path style="fill:#D8DEE8;" d="M2324.014,965.979c0,0-21.871-3.083-23.059,11.829c-1.188,14.913,5.134,36.294,23.325,31.743
					c18.191-4.551,15.1-20.295,15.1-20.295S2338.908,968.049,2324.014,965.979z"/>
				<path style="fill:#D8DEE8;" d="M2384.923,1037.916c0,0-10.922,22.624,0.683,30.875c11.605,8.251,44.411,6.614,33.881-23.782
					C2419.488,1045.008,2406.721,1026.323,2384.923,1037.916z"/>
				<path style="fill:#D8DEE8;" d="M2377.999,951.043c0,0-22.917,27.715,0.517,37.788c23.434,10.074,35.465-10.248,31.06-23.913
					C2405.171,951.253,2394.168,941.659,2377.999,951.043z"/>
				<path style="fill:#D8DEE8;" d="M2439.8,960.954c0,0,13.163,27.23,29.073,12.841c15.91-14.389,4.587-30.705-7.404-32.124
					C2449.479,940.253,2438.289,945.305,2439.8,960.954z"/>
				<path style="fill:#D8DEE8;" d="M2387.394,897.341c0,0,0.758-7.787-3.378-15.308s8.21-20.149,21.995-21.266
					c13.785-1.116,23.74,6.592,19.589,15.212c-4.151,8.62-8.649,15.665-5.419,19.079c3.229,3.414-28.155,11.99-32.695,3.913
					L2387.394,897.341z"/>
				<path style="fill:#D8DEE8;" d="M2480.748,927.941c0,0-22.968-20.098-12.757-33.979s20.815-12.201,25.949-6.194
					S2511.091,931.557,2480.748,927.941z"/>
			</g>
			<g>
				<path style="fill:#D8DEE8;" d="M2695.593,733.792c0,0-12.772-18.056-20.698-18.354c-7.926-0.297-27.927,1.455-26.39-11.922
					c1.537-13.376,14.091-25.844,25.397-12.673c11.306,13.171,24.37,24.864,35.649,22.585
					C2720.829,711.149,2702.615,746.004,2695.593,733.792z"/>
				<path style="fill:#D8DEE8;" d="M2693.584,778.941c0,0-16.992-3.063-19.784,2.024c-2.792,5.087-8.057,19.524-17.065,9.933
					c-9.008-9.591-13.784-25.935-0.741-25.026s25.607-0.297,27.658-9.266C2685.704,747.636,2704.551,782.089,2693.584,778.941z"/>
				<path style="fill:#D8DEE8;" d="M2765.499,690.409c0,0,18.583-11.993,19.217-19.9c0.634-7.907-0.266-27.963,13.032-25.86
					c13.299,2.104,25.221,15.177,11.582,25.913c-13.639,10.736-25.878,23.291-24.08,34.656
					C2787.048,716.584,2752.999,696.905,2765.499,690.409z"/>
				<path style="fill:#D8DEE8;" d="M2795.164,710.481c0,0,21.253,6.12,27.628,1.401c6.375-4.72,20.898-18.582,28.054-7.177
					s5.142,28.983-11.914,25.762c-17.056-3.221-34.563-4.191-41.946,4.635C2789.604,743.927,2782.052,705.332,2795.164,710.481z"/>
				<path style="fill:#D8DEE8;" d="M2781.232,776.91c0,0-1.071,22.091,4.988,27.21s22.888,16.066,13.435,25.653
					c-9.454,9.586-27.025,11.667-27.811-5.673c-0.786-17.34-3.866-34.6-14.153-39.756
					C2747.404,779.188,2783.229,762.965,2781.232,776.91z"/>
				
					<ellipse transform="matrix(0.7071 -0.7071 0.7071 0.7071 282.074 2158.5217)" style="fill:#D8DEE8;" cx="2746.603" cy="738.767" rx="85.348" ry="85.348"/>
				<path style="fill:#D8DEE8;" d="M2719.755,692.848c0,0,6.629-21.609,0.671-26.488c-5.958-4.879-23.3-15.233-9.742-24.794
					c13.558-9.561,34.939-11.953,31.669,4.976c-3.271,16.929-3.796,33.733,7.177,38.561
					C2760.502,689.932,2714.001,706.516,2719.755,692.848z"/>
				<path style="fill:#D8DEE8;" d="M2804.261,734.772c0,0,9.665,17.128,15.574,14.808c5.909-2.32,20.797-11.143,19.762,5.254
					c-1.035,16.397-10.288,35.431-18.82,23.608c-8.532-11.823-18.363-21.3-26.748-14.79
					C2785.643,770.16,2798.928,722.642,2804.261,734.772z"/>
				<path style="fill:#D8DEE8;" d="M2736.031,799.846c0,0-17.403,10.888-15.189,17.267c2.214,6.379,10.785,22.388-5.671,21.617
					c-16.456-0.771-35.4-10.427-23.35-19.967c12.05-9.54,21.767-20.442,15.393-29.425
					C2700.839,780.353,2748.326,793.781,2736.031,799.846z"/>
				<path style="opacity:0.3;fill:#F4F7FA;" d="M2713.151,726.924c3.169,7.577,0.8,15.785-5.292,18.333
					c-6.092,2.548-13.6-1.529-16.769-9.106c-3.169-7.577-0.8-15.785,5.292-18.333S2709.982,719.347,2713.151,726.924z"/>
				
					<ellipse transform="matrix(0.9225 -0.3859 0.3859 0.9225 -53.7742 1131.854)" style="opacity:0.3;fill:#F4F7FA;" cx="2792.675" cy="699.884" rx="14.372" ry="18.094"/>
				<path style="opacity:0.3;fill:#F4F7FA;" d="M2784.267,799.561c-6.226,7.816-16.307,10.142-22.515,5.196
					c-6.208-4.946-6.194-15.292,0.033-23.107s16.307-10.142,22.515-5.196C2790.508,781.4,2790.493,791.745,2784.267,799.561z"/>
			</g>
			<circle style="fill:#D8DEE8;" cx="2796.75" cy="1101.509" r="22.273"/>
			
				<ellipse transform="matrix(0.3795 -0.9252 0.9252 0.3795 605.8525 3394.1904)" style="fill:#D8DEE8;" cx="2833.298" cy="1245.432" rx="20.835" ry="20.835"/>
			
				<ellipse transform="matrix(0.5354 -0.8446 0.8446 0.5354 324.8261 3069.9094)" style="fill:#D8DEE8;" cx="2952.867" cy="1239.698" rx="20.015" ry="20.015"/>
			
				<ellipse transform="matrix(0.3795 -0.9252 0.9252 0.3795 823.9237 3396.0337)" style="fill:#D8DEE8;" cx="2943.71" cy="1083.78" rx="20.735" ry="20.735"/>
			
				<ellipse transform="matrix(0.9302 -0.3671 0.3671 0.9302 -217.795 1203.7832)" style="fill:#D8DEE8;" cx="3056.005" cy="1174.503" rx="14.979" ry="14.979"/>
		</g>
		<g>
			
				<linearGradient id="SVGID_00000062888540391175996930000006734974867960875395_" gradientUnits="userSpaceOnUse" x1="2476.7903" y1="2059.8142" x2="2092.8325" y2="2871.0205">
				<stop  offset="0" style="stop-color:#AA80F9"/>
				<stop  offset="0.9964" style="stop-color:#6165D7"/>
			</linearGradient>
			<path style="fill:url(#SVGID_00000062888540391175996930000006734974867960875395_);" d="M2283.687,2046.222
				c0,0-109.306,64.682-92.866,226.74c16.441,162.058,85.726,283.895-50.496,370.796s-293.583,108.039-185.545,150.314
				c108.039,42.276,457.99-53.6,530.798-269.887C2558.388,2307.898,2381.25,2032.33,2283.687,2046.222z"/>
			
				<linearGradient id="SVGID_00000155833941550242218230000007228526295672977041_" gradientUnits="userSpaceOnUse" x1="2518.821" y1="2692.5244" x2="2190.1685" y2="3386.8845">
				<stop  offset="0" style="stop-color:#AA80F9"/>
				<stop  offset="0.9964" style="stop-color:#6165D7"/>
			</linearGradient>
			<path style="fill:url(#SVGID_00000155833941550242218230000007228526295672977041_);" d="M3038.314,2063.589
				c-45.658,289.908-42.381,440.552-26.564,524.822c5.002,26.775,25.26,121.261-12.014,226.599
				c-13.81,38.93-31.741,68.875-41.923,83.319c-9.654,13.741-21.42,26.388-34.843,37.979l-0.07,0.034
				c-63.765,54.959-165.898,85.892-267.958,92.656c-136.728,9.053-273.314-25.366-317.317-103.717
				c-29.17-51.93,9.09-75.499,5.919-242.946c-2.08-111.222-19.941-152.759-38.295-282.862
				c-11.45-81.206-23.744-201.551-21.561-353.251c82.897-31.285,196.161-64.26,333.383-76.943
				c146.733-13.562,273.242,0.459,369.139,19.695C3020.77,1995.912,3043.81,2028.748,3038.314,2063.589z"/>
			
				<linearGradient id="SVGID_00000005261722559205901890000010693735028506230934_" gradientUnits="userSpaceOnUse" x1="-12854.7139" y1="2099.7751" x2="-12476.7471" y2="1468.0039" gradientTransform="matrix(1 0 0 1 15448.0527 0)">
				<stop  offset="0" style="stop-color:#AB316D"/>
				<stop  offset="1" style="stop-color:#792D3D"/>
			</linearGradient>
			<path style="fill:url(#SVGID_00000005261722559205901890000010693735028506230934_);" d="M2671.247,1796.287
				c4.971,47.2,11.033,91.786,21.305,136.588c2.874,12.533,11.599,22.809,24.414,23.866c50.729,4.181,101.458,8.362,152.186,12.543
				l-281.33,86.254l-128.966-61.502c39.35-12.193,78.7-24.388,118.05-36.581c10.108-3.133,17.421-11.927,18.656-22.438
				c3.424-29.146,6.849-58.293,10.272-87.439L2671.247,1796.287z"/>
			
				<linearGradient id="SVGID_00000080170081729912099540000009733094137685756325_" gradientUnits="userSpaceOnUse" x1="-13315.3721" y1="1966.5614" x2="-13017.1465" y2="1426.3801" gradientTransform="matrix(0.9522 -0.3054 0.3054 0.9522 14646.9648 -4057.4856)">
				<stop  offset="0" style="stop-color:#AB316D"/>
				<stop  offset="1" style="stop-color:#792D3D"/>
			</linearGradient>
			<path style="fill:url(#SVGID_00000080170081729912099540000009733094137685756325_);" d="M2676.271,1763.485
				c-7.797,77.237-63.706,157.022-107.227,152.629c-43.52-4.393-66.493-89.996-58.696-167.234
				c7.797-77.237,56.066-121.216,99.586-116.823C2653.454,1636.451,2684.067,1686.247,2676.271,1763.485z"/>
			
				<linearGradient id="SVGID_00000158725070388958875760000005416989281813702075_" gradientUnits="userSpaceOnUse" x1="-13142.6006" y1="1601.4446" x2="-13311.4102" y2="1899.6733" gradientTransform="matrix(0.9522 -0.3054 0.3054 0.9522 14646.9648 -4057.4856)">
				<stop  offset="0" style="stop-color:#444B8C"/>
				<stop  offset="0.9964" style="stop-color:#26264F"/>
			</linearGradient>
			<path style="fill:url(#SVGID_00000158725070388958875760000005416989281813702075_);" d="M2624.642,1773.267
				c4.619,1.597,12.767-23.007,21.971-22.032c7.763,0.822,15.883,19.807,11.944,35.876c-3.352,13.679-13.062,15.534-12.924,25.32
				c0.225,16.092,26.765,31.725,33.242,26.806c4.156-3.156-3.089-12.378-2.37-25.794c1.413-26.37,31.666-33.089,49.893-58.759
				c28.664-40.367,16.864-112.499-13.896-131.054c-11.69-7.053-21.066-3.317-37.744-15.362
				c-18.056-13.041-15.311-23.374-28.51-31.248c-22.398-13.36-57.891-0.063-78.465,14.127
				c-25.885,17.854-23.113,33.644-42.654,38.681c-23.141,5.965-33.336-14.555-61.698-9.832c-1.634,0.272-27.983,5.073-41.753,27.629
				c-17.882,29.292,0.099,64.534,2.647,69.53c16.293,31.934,53.534,53.498,86.146,50.58c6.865-0.614,5.131-1.563,69.057-23.779
				c21.12-7.34,33.935-11.621,40.619-5.507C2629.795,1747.274,2619.994,1771.66,2624.642,1773.267z"/>
			
				<linearGradient id="SVGID_00000090276437738402776430000002937412248519015553_" gradientUnits="userSpaceOnUse" x1="2641.9297" y1="3241.0503" x2="3384.2327" y2="1304.6084">
				<stop  offset="0" style="stop-color:#AA80F9"/>
				<stop  offset="0.9964" style="stop-color:#6165D7"/>
			</linearGradient>
			<path style="opacity:0.3;fill:url(#SVGID_00000090276437738402776430000002937412248519015553_);" d="M2974.864,2863.592
				c-16.099,29.347-35.371,54.29-51.894,72.715l-0.07,0.034c-63.765,54.959-165.898,85.892-267.958,92.656
				c42.417-39.704,57.354-75.287,59.186-105.69c5.389-88.78-99.912-145.958-51.507-232.659
				c37.697-67.572,114.11-55.1,171.782-127.392c83.776-105.055-32.906-187.423,42.945-271.446
				c19.869-22.019,54.641-45.94,119.113-64.789c-29.593,188.833-20.892,302.343,0,374.178
				C3005.48,2632.201,3041.837,2741.625,2974.864,2863.592z"/>
			<g>
				<path style="fill:#FFFFFF;" d="M2633.355,1763.157c0.977,0.86,1.274,2.073,0.663,2.709l-33.196,34.521
					c-0.611,0.636-1.899,0.453-2.876-0.407l0,0c-0.977-0.86-1.274-2.073-0.663-2.709l33.196-34.521
					C2631.091,1762.114,2632.378,1762.296,2633.355,1763.157L2633.355,1763.157z"/>
				<path style="fill:#FFFFFF;" d="M2651.591,1802.574c1.143,0.618,1.66,1.98,1.154,3.042l-27.484,57.653
					c-0.506,1.061-1.843,1.421-2.986,0.802l0,0c-1.143-0.618-1.66-1.98-1.154-3.041l27.484-57.653
					C2649.111,1802.315,2650.448,1801.956,2651.591,1802.574L2651.591,1802.574z"/>
				<g>
					<path style="fill:#FFFFFF;" d="M2607.586,1802.86l18.229,56.84c1.722,5.368-3.88,11.741-8.743,13.053l-86.939,23.701
						c-3.907,1.054-9.176-1.634-10.874-6.363l-18.298-49.552c-1.265-3.525-0.938-7.065,0.946-9.359
						c0.698-0.919,1.471-1.565,2.56-1.965l88.1-32.333C2597.382,1795.138,2605.792,1797.265,2607.586,1802.86z"/>
					<g style="opacity:0.4;">
						
							<linearGradient id="SVGID_00000021816501388860964540000013646807433321694626_" gradientUnits="userSpaceOnUse" x1="2084.9368" y1="1912.7507" x2="2176.5369" y2="1912.7507" gradientTransform="matrix(0.9522 -0.3054 0.3054 0.9522 -63.1239 660.1025)">
							<stop  offset="0" style="stop-color:#AA80F9"/>
							<stop  offset="0.9964" style="stop-color:#6165D7"/>
						</linearGradient>
						<path style="fill:url(#SVGID_00000021816501388860964540000013646807433321694626_);" d="M2593.324,1816.071
							c0.347,1.082-0.956,2.495-1.923,2.839l-80.288,28.525c-0.711,0.253-3.784,0.434-4.081-0.49l-0.374-1.167
							c-0.296-0.923,1.896-2.479,2.605-2.739l79.518-29.099c0.965-0.354,3.758-0.319,4.104,0.763L2593.324,1816.071z"/>
						
							<linearGradient id="SVGID_00000060718326506179252440000008947016700048013698_" gradientUnits="userSpaceOnUse" x1="2084.9363" y1="1933.5588" x2="2176.5364" y2="1933.5588" gradientTransform="matrix(0.9522 -0.3054 0.3054 0.9522 -63.1239 660.1025)">
							<stop  offset="0" style="stop-color:#AA80F9"/>
							<stop  offset="0.9964" style="stop-color:#6165D7"/>
						</linearGradient>
						<path style="fill:url(#SVGID_00000060718326506179252440000008947016700048013698_);" d="M2600.103,1837.208
							c0.347,1.082-0.966,2.465-1.945,2.773l-81.242,25.547c-0.72,0.226-3.8,0.385-4.096-0.539l-0.374-1.167
							c-0.296-0.923,1.903-2.457,2.621-2.69l80.473-26.121c0.976-0.317,3.779-0.252,4.125,0.83L2600.103,1837.208z"/>
						
							<linearGradient id="SVGID_00000100373615134845934520000003510066664235881363_" gradientUnits="userSpaceOnUse" x1="2084.9358" y1="1954.2727" x2="2176.5359" y2="1954.2727" gradientTransform="matrix(0.9522 -0.3054 0.3054 0.9522 -63.1239 660.1025)">
							<stop  offset="0" style="stop-color:#AA80F9"/>
							<stop  offset="0.9964" style="stop-color:#6165D7"/>
						</linearGradient>
						<path style="fill:url(#SVGID_00000100373615134845934520000003510066664235881363_);" d="M2606.882,1858.346
							c0.347,1.082-0.975,2.435-1.967,2.706l-82.197,22.57c-0.729,0.199-3.816,0.336-4.112-0.588l-0.374-1.167
							c-0.296-0.924,1.91-2.435,2.637-2.641l81.427-23.144c0.988-0.28,3.8-0.185,4.147,0.897L2606.882,1858.346z"/>
					</g>
					
						<linearGradient id="SVGID_00000008130879348506624140000008043826141426708415_" gradientUnits="userSpaceOnUse" x1="2081.1042" y1="1935.9323" x2="2194.1511" y2="1935.9323" gradientTransform="matrix(0.9522 -0.3054 0.3054 0.9522 -63.1239 660.1025)">
						<stop  offset="0" style="stop-color:#AA80F9"/>
						<stop  offset="0.9964" style="stop-color:#6165D7"/>
					</linearGradient>
					<path style="opacity:0.2;fill:url(#SVGID_00000008130879348506624140000008043826141426708415_);" d="M2624.368,1855.189
						l1.447,4.511c1.722,5.368-3.88,11.741-8.743,13.053l-86.939,23.701c-3.907,1.054-9.176-1.634-10.874-6.363l-18.298-49.552
						c-1.265-3.525-0.938-7.065,0.946-9.359c3.157,3.365,7.281,7.117,12.64,10.026c1.926,1.073,3.951,2.066,6.188,2.843
						c6.049,2.239,13.097,3.311,21.285,2.228c7.108-0.936,15.769-1.773,24.755-1.919c5.336-0.12,13.78-0.987,19.114-0.557
						C2600.343,1844.935,2618.062,1847.062,2624.368,1855.189z"/>
				</g>
			</g>
			<g>
				
					<linearGradient id="SVGID_00000032636699204069499720000011753515453074345366_" gradientUnits="userSpaceOnUse" x1="2581.5303" y1="2095.9187" x2="2551.6372" y2="2159.0754">
					<stop  offset="0" style="stop-color:#444B8C"/>
					<stop  offset="0.9964" style="stop-color:#26264F"/>
				</linearGradient>
				<polygon style="fill:url(#SVGID_00000032636699204069499720000011753515453074345366_);" points="2564.337,2045.105 
					2641.894,2040.177 2610.058,2122.786 2571.305,2122.786 				"/>
				
					<linearGradient id="SVGID_00000097464567021082602980000011126859905613173431_" gradientUnits="userSpaceOnUse" x1="2545.6506" y1="2509.7314" x2="2397.6499" y2="2822.4199">
					<stop  offset="0" style="stop-color:#444B8C"/>
					<stop  offset="0.9964" style="stop-color:#26264F"/>
				</linearGradient>
				<polygon style="fill:url(#SVGID_00000097464567021082602980000011126859905613173431_);" points="2661.283,2598.174 
					2622.53,2628.997 2564.259,2675.518 2514.621,2598.201 2571.305,2122.786 2610.058,2122.786 				"/>
				
					<linearGradient id="SVGID_00000168799131923807972130000002465314248718467245_" gradientUnits="userSpaceOnUse" x1="2534.0491" y1="2508.6624" x2="2390.2686" y2="2812.4346">
					<stop  offset="0" style="stop-color:#444B8C"/>
					<stop  offset="0.9964" style="stop-color:#26264F"/>
				</linearGradient>
				<path style="opacity:0.2;fill:url(#SVGID_00000168799131923807972130000002465314248718467245_);" d="M2622.53,2628.889
					l-58.271,46.575l-49.639-77.29l56.685-475.389h4.263c13.141,24.031,30.967,76.725,12.365,174.172
					C2564.4,2420.438,2583.847,2545.006,2622.53,2628.889z"/>
			</g>
			<g>
				<g>
					
						<linearGradient id="SVGID_00000183220271485546190060000005542705893258964145_" gradientUnits="userSpaceOnUse" x1="-4874.7002" y1="3106.2522" x2="-5072.2974" y2="3523.7251" gradientTransform="matrix(-1 0 0 1 -2244.1465 0)">
						<stop  offset="0" style="stop-color:#FFC444"/>
						<stop  offset="0.3138" style="stop-color:#FBA94A"/>
						<stop  offset="0.9964" style="stop-color:#F36F56"/>
					</linearGradient>
					<polygon style="fill:url(#SVGID_00000183220271485546190060000005542705893258964145_);" points="2708.616,3083.264 
						2343.515,3214.483 2343.515,2681.86 2727.477,2596.356 					"/>
					
						<linearGradient id="SVGID_00000037664586352874367200000006103311075885007491_" gradientUnits="userSpaceOnUse" x1="-4790.9868" y1="2745.1729" x2="-4806.8657" y2="2805.4263" gradientTransform="matrix(-1 0 0 1 -2244.1465 0)">
						<stop  offset="0" style="stop-color:#FFC444"/>
						<stop  offset="0.3138" style="stop-color:#FBA94A"/>
						<stop  offset="0.9964" style="stop-color:#F36F56"/>
					</linearGradient>
					<polygon style="fill:url(#SVGID_00000037664586352874367200000006103311075885007491_);" points="2458.314,2835.568 
						2653.951,2782.772 2655.569,2731.437 2458.949,2781.714 					"/>
					
						<linearGradient id="SVGID_00000132793440908343442010000005623569490167564729_" gradientUnits="userSpaceOnUse" x1="-4777.9912" y1="2582.6902" x2="-4799.5493" y2="2664.4927" gradientTransform="matrix(-1 0 0 1 -2244.1465 0)">
						<stop  offset="0" style="stop-color:#FFC444"/>
						<stop  offset="0.3138" style="stop-color:#FBA94A"/>
						<stop  offset="0.9964" style="stop-color:#F36F56"/>
					</linearGradient>
					<polygon style="fill:url(#SVGID_00000132793440908343442010000005623569490167564729_);" points="2343.515,2705.454 
						2749.558,2616.892 2751.936,2565.267 2343.515,2651.013 					"/>
				</g>
				
					<linearGradient id="SVGID_00000113347421099303898920000012844151840597725061_" gradientUnits="userSpaceOnUse" x1="-4194.4453" y1="2370.2578" x2="-4418.8687" y2="3221.8374" gradientTransform="matrix(-1 0 0 1 -2244.1465 0)">
					<stop  offset="0" style="stop-color:#FFC444"/>
					<stop  offset="0.3138" style="stop-color:#FBA94A"/>
					<stop  offset="0.9964" style="stop-color:#F36F56"/>
				</linearGradient>
				<polygon style="fill:url(#SVGID_00000113347421099303898920000012844151840597725061_);" points="1828.564,2591.426 
					1828.564,3092.425 2343.515,3214.483 2343.515,2678.234 				"/>
				
					<linearGradient id="SVGID_00000047777898958380037250000001598180482746426248_" gradientUnits="userSpaceOnUse" x1="-4331.6377" y1="2664.4021" x2="-4414.7134" y2="2979.6355" gradientTransform="matrix(-1 0 0 1 -2244.1465 0)">
					<stop  offset="0" style="stop-color:#FFC444"/>
					<stop  offset="0.3138" style="stop-color:#FBA94A"/>
					<stop  offset="0.9964" style="stop-color:#F36F56"/>
				</linearGradient>
				<polygon style="fill:url(#SVGID_00000047777898958380037250000001598180482746426248_);" points="1814.832,2614.667 
					2343.515,2705.454 2343.515,2651.013 1814.832,2563.906 				"/>
				
					<linearGradient id="SVGID_00000151530355999741963500000003766579846147368104_" gradientUnits="userSpaceOnUse" x1="-4480.9854" y1="2390.6819" x2="-4554.4087" y2="2669.2886" gradientTransform="matrix(-1 0 0 1 -2244.1465 0)">
					<stop  offset="0" style="stop-color:#FFC444"/>
					<stop  offset="0.3138" style="stop-color:#FBA94A"/>
					<stop  offset="0.9964" style="stop-color:#F36F56"/>
				</linearGradient>
				<polygon style="fill:url(#SVGID_00000151530355999741963500000003766579846147368104_);" points="2751.066,2565.267 
					2291.997,2497.216 1814.273,2563.906 2342.356,2651.013 				"/>
				
					<linearGradient id="SVGID_00000098936605114444618530000006572683706499148687_" gradientUnits="userSpaceOnUse" x1="-4299.1509" y1="2781.176" x2="-4449.8003" y2="3352.8201" gradientTransform="matrix(-1 0 0 1 -2244.1465 0)">
					<stop  offset="0" style="stop-color:#FFC444"/>
					<stop  offset="0.3138" style="stop-color:#FBA94A"/>
					<stop  offset="0.9964" style="stop-color:#F36F56"/>
				</linearGradient>
				<path style="opacity:0.2;fill:url(#SVGID_00000098936605114444618530000006572683706499148687_);" d="M1828.564,3002.759v89.667
					l514.952,122.058v-509.029c0,0-169.008,33.563-247.05,162.426C2044.391,2953.898,1900.657,2928.283,1828.564,3002.759z"/>
			</g>
			
				<linearGradient id="SVGID_00000003808376624684890490000010826670681856425120_" gradientUnits="userSpaceOnUse" x1="2580.1411" y1="2761.2039" x2="2491.0151" y2="2949.5049">
				<stop  offset="0" style="stop-color:#AB316D"/>
				<stop  offset="1" style="stop-color:#792D3D"/>
			</linearGradient>
			<path style="fill:url(#SVGID_00000003808376624684890490000010826670681856425120_);" d="M2626.792,2798.769
				c0,0-56.368,12.331-65.176-4.404c-8.807-16.734-62.533-49.322-52.845-28.184s33.469,41.395,10.569,51.964
				c-22.9,10.569-84.552,66.056-96.002,46.68c-11.45-19.376-11.45,65.175,32.588,60.772c44.038-4.404,103.982-54.606,122.451-55.487
				c18.469-0.881,71.483-16.734,71.483-16.734L2626.792,2798.769z"/>
			
				<linearGradient id="SVGID_00000133516257973078480930000006490020186115947193_" gradientUnits="userSpaceOnUse" x1="2761.4202" y1="2903.1697" x2="2395.6626" y2="3675.9233">
				<stop  offset="0" style="stop-color:#AA80F9"/>
				<stop  offset="0.9964" style="stop-color:#6165D7"/>
			</linearGradient>
			<path style="fill:url(#SVGID_00000133516257973078480930000006490020186115947193_);" d="M2973.507,1985.99
				c0,0-200.469,66.815-150.824,266.983c49.646,200.168,118.843,339.498,46.469,404.481
				c-72.374,64.983-250.226,121.351-250.226,121.351l8.748,86.9c0,0,481.853,111.947,545.079-208.251
				C3235.978,2337.256,3169.533,1974.59,2973.507,1985.99z"/>
		</g>
		<g>
			<g>
				
					<linearGradient id="SVGID_00000026161557196749932090000009990569296583837866_" gradientUnits="userSpaceOnUse" x1="665.4454" y1="2232.9353" x2="319.7254" y2="2892.6262" gradientTransform="matrix(0.8967 -0.4427 0.4427 0.8967 -511.1221 474.3065)">
					<stop  offset="0" style="stop-color:#AA80F9"/>
					<stop  offset="0.9964" style="stop-color:#6165D7"/>
				</linearGradient>
				<path style="fill:url(#SVGID_00000026161557196749932090000009990569296583837866_);" d="M1108.134,3115.579
					c-37.566,14.98-88.776,27.768-147.496,20.663c-63.531-7.687-157.946-41.333-161.693-90.056
					c-1.399-18.19,9.734-39.854,25.773-46.232c23.695-9.423,41.979,20.926,98.559,35.821c10.456,2.753,64.518,16.985,77.844-3.383
					c6.625-10.126,1.849-26.765-5.409-37.625c-21.22-31.753-65.25-16.5-123.25-33.58c-58.804-17.318-124.58-65.696-127.025-119.151
					c-1.406-30.719,18.011-65.114,40.017-69.005c9.404-1.663,17.933,2.483,69.519,44.085c42.339,34.146,53.266,44.798,68.546,42.473
					c15.728-2.393,34.19-18.249,35.611-35.61c3.701-45.216-112.162-52.075-168.575-145.65
					c-25.28-41.934-45.458-112.621-12.701-146.081c22.145-22.62,67.388-27.108,93.313-9.347
					c23.371,16.011,16.493,40.135,50.547,85.213c10.334,13.679,31.599,41.828,44.906,37.286
					c15.622-5.332,12.482-53.061,11.514-64.583c-7.292-86.751-58.499-107.931-48.967-156.498
					c7.433-37.871,47.694-71.485,90.766-75.475c37.69-3.491,78.646,15.599,96.511,47.518c18.177,32.476,6.526,79.491-16.774,173.521
					c-11.05,44.591-21.706,76.293-5.061,106.975c8.114,14.957,24.747,33.417,36.634,29.985
					c26.236-7.576-9.816-110.486,39.906-153.676c25.451-22.107,69.228-24.967,98.205-6.494
					c35.504,22.634,44.995,74.873,32.302,111.073c-16.561,47.231-61.226,39.603-104.907,103.119
					c-19.378,28.177-45.726,80.772-26.572,104.052c8.339,10.136,25.891,15.429,39.813,10.417
					c31.205-11.235,17.056-64.479,54.052-109.221c26.654-32.235,74.8-53.942,95.572-40.191c29.325,19.415,3.5,109.11-12.973,151.243
					C1326.726,2928.098,1272.224,3032.949,1108.134,3115.579z"/>
				<path style="opacity:0.5;fill:#FFFFFF;" d="M1116.703,3092.042c-44.765-78.636-72.568-270.1-72.042-367.363
					c0.516-95.173-22.556-233.944-22.79-235.334l2.733-0.458c0.232,1.393,23.344,140.399,22.828,235.807
					c-0.524,96.961,27.137,287.735,71.678,365.977L1116.703,3092.042z"/>
			</g>
			
				<linearGradient id="SVGID_00000000924647035306684770000004162221443497741188_" gradientUnits="userSpaceOnUse" x1="685.8909" y1="2897.1155" x2="1231.5924" y2="2897.1155">
				<stop  offset="0" style="stop-color:#FF9085"/>
				<stop  offset="1" style="stop-color:#FB6FBB"/>
			</linearGradient>
			<path style="fill:url(#SVGID_00000000924647035306684770000004162221443497741188_);" d="M994.945,3150.609
				c-56.041-20.142-147.474-63.131-221.034-154.119c-30.311-37.492-89.512-110.719-87.991-209.983
				c0.758-49.475,17.024-133.04,60.583-142.055c28.028-5.801,65.385,19.673,77.38,50.309c12.095,30.891-8.727,48.814-2.214,110.855
				c2.409,22.957,5.523,49.71,21.102,55.337c13.01,4.7,32.439-6.156,42.323-21.115c20.419-30.902-12.606-60.063,0.64-106.331
				c9.419-32.901,39.883-66.238,65.634-62.262c22.359,3.452,40.483,34.929,42.136,63.07c2.648,45.061-38.242,59.376-36.804,109.638
				c0.638,22.298,9.573,50.507,24.635,53.747c17.162,3.691,40.182-25.489,50.956-49.988c14.225-32.345,3.929-49.305,18.83-62.545
				c16.621-14.769,51.251-13.056,67.961,3.666c23.404,23.421,10.345,74.971-7.097,105.446c-22.33,39.014-53.62,46.59-54.824,79.778
				c-0.442,12.18,3.121,29.12,13.517,33.748c14.831,6.603,37.547-14.531,52.631-28.563c36.709-34.151,37.788-56.705,57.383-59.557
				c19.839-2.888,44.4,16.496,49.848,38.181c3.028,12.052,2.53,34.279-44.143,80.02
				C1153.727,3069.902,1094.47,3117.324,994.945,3150.609z"/>
		</g>
	</g>
</g>
</svg>
