<?xml version="1.0" encoding="UTF-8"?>
<svg xmlns="http://www.w3.org/2000/svg" xmlns:xlink="http://www.w3.org/1999/xlink" width="2384" height="1684" viewBox="0 0 2384 1684">
<defs>
<clipPath id="clip-0">
<path clip-rule="nonzero" d="M 948 451 L 951 451 L 951 454 L 948 454 Z M 948 451 "/>
</clipPath>
<clipPath id="clip-1">
<path clip-rule="nonzero" d="M 948.636719 453.78125 C 948.640625 452.609375 948.644531 451.96875 948.65625 451.960938 C 949.144531 451.941406 949.632812 451.941406 950.121094 451.941406 C 949.921875 452.238281 949.742188 452.539062 949.578125 452.839844 L 949.578125 453.28125 C 949.261719 453.449219 948.957031 453.609375 948.636719 453.78125 "/>
</clipPath>
<clipPath id="clip-2">
<path clip-rule="nonzero" d="M 948.636719 453.78125 C 948.640625 452.609375 948.644531 451.96875 948.65625 451.960938 C 949.144531 451.941406 949.632812 451.941406 950.121094 451.941406 C 949.921875 452.238281 949.742188 452.539062 949.578125 452.839844 L 949.578125 453.28125 C 949.261719 453.449219 948.957031 453.609375 948.636719 453.78125 "/>
</clipPath>
<linearGradient id="linear-pattern-0" gradientUnits="userSpaceOnUse" x1="0.674659" y1="0" x2="0.676171" y2="0" gradientTransform="matrix(839.943, -1307.86, 1307.86, 839.943, 635.705, 1499.1)">
<stop offset="0" stop-color="rgb(86.468506%, 83.72345%, 79.801941%)" stop-opacity="1"/>
<stop offset="0.5" stop-color="rgb(86.459351%, 83.714294%, 79.792786%)" stop-opacity="1"/>
<stop offset="1" stop-color="rgb(86.439514%, 83.694458%, 79.772949%)" stop-opacity="1"/>
</linearGradient>
<clipPath id="clip-3">
<path clip-rule="nonzero" d="M 817 453 L 1436 453 L 1436 1187 L 817 1187 Z M 817 453 "/>
</clipPath>
<clipPath id="clip-4">
<path clip-rule="nonzero" d="M 1120.378906 1186.820312 L 1093.25 1173.25 L 1126.539062 1106.640625 L 1093.25 1173.25 L 1120.378906 1186.820312 M 1106.519531 1096.28125 L 1106.511719 1096.269531 L 1108.878906 1091.539062 L 1108.878906 1091.550781 L 1106.519531 1096.28125 M 1179.800781 1043 L 1179.789062 1043 C 1199.878906 1032.421875 1217.488281 1020.738281 1232.921875 1008.550781 L 1232.921875 1008.558594 C 1228.371094 1012.148438 1223.628906 1015.699219 1218.699219 1019.191406 C 1211.539062 1024.25 1203.960938 1029.191406 1195.941406 1033.96875 C 1190.738281 1037.050781 1185.359375 1040.070312 1179.800781 1043 M 831.433594 1042.390625 L 817.703125 1035.53125 L 831.4375 1042.378906 L 831.433594 1042.390625 M 902.792969 954.003906 L 903.699219 952.191406 L 889.808594 844.582031 L 903.699219 952.191406 L 902.792969 954.003906 M 1358.171875 869.417969 L 1358.171875 783.3125 L 1397.488281 776.308594 L 1388.570312 777.90625 C 1389.191406 778.074219 1389.789062 778.289062 1390.390625 778.488281 C 1390.539062 778.539062 1390.691406 778.589844 1390.851562 778.640625 C 1391.898438 779.003906 1392.929688 779.390625 1393.949219 779.839844 C 1394.128906 779.921875 1394.300781 780.003906 1394.480469 780.089844 C 1395.449219 780.535156 1396.378906 781.019531 1397.289062 781.550781 C 1397.511719 781.667969 1397.710938 781.800781 1397.910156 781.917969 C 1398.769531 782.433594 1399.621094 782.984375 1400.441406 783.582031 C 1400.671875 783.75 1400.890625 783.933594 1401.121094 784.113281 C 1401.890625 784.695312 1402.648438 785.296875 1403.371094 785.960938 C 1403.628906 786.179688 1403.871094 786.429688 1404.121094 786.660156 C 1404.800781 787.292969 1405.460938 787.941406 1406.101562 788.640625 C 1406.378906 788.941406 1406.648438 789.273438 1406.910156 789.570312 C 1407.488281 790.257812 1408.078125 790.9375 1408.640625 791.671875 C 1408.929688 792.054688 1409.210938 792.46875 1409.488281 792.867188 C 1409.988281 793.566406 1410.488281 794.25 1410.96875 794.996094 C 1411.269531 795.480469 1411.570312 796.015625 1411.871094 796.511719 C 1412.289062 797.210938 1412.699219 797.910156 1413.101562 798.644531 C 1413.441406 799.257812 1413.730469 799.925781 1414.050781 800.554688 C 1414.179688 800.839844 1414.328125 801.121094 1414.46875 801.40625 C 1414.519531 801.523438 1414.570312 801.621094 1414.621094 801.722656 C 1414.75 802.019531 1414.898438 802.304688 1415.03125 802.601562 C 1415.398438 803.417969 1415.730469 804.285156 1416.070312 805.132812 C 1416.148438 805.332031 1416.230469 805.515625 1416.308594 805.714844 C 1416.410156 805.980469 1416.53125 806.214844 1416.628906 806.464844 C 1416.679688 806.597656 1416.730469 806.730469 1416.78125 806.863281 C 1417.308594 808.296875 1417.808594 809.777344 1418.339844 811.574219 C 1418.539062 812.753906 1418.710938 813.921875 1418.808594 815.101562 C 1419.011719 816.847656 1419.128906 818.597656 1419.128906 820.34375 C 1419.128906 821.808594 1419.058594 823.273438 1418.929688 824.734375 C 1418.660156 827.632812 1418.128906 830.476562 1417.328125 833.222656 C 1415.351562 840.113281 1411.738281 846.402344 1406.601562 851.5625 C 1403.519531 854.640625 1399.890625 857.320312 1395.730469 859.449219 C 1393.878906 860.398438 1391.878906 861.195312 1389.820312 861.929688 C 1387.238281 862.84375 1384.558594 863.609375 1381.671875 864.125 L 1358.171875 869.417969 M 1397.488281 776.308594 C 1413.039062 773.828125 1424.191406 765.398438 1430.320312 754.253906 C 1429.679688 755.425781 1428.980469 756.566406 1428.230469 757.671875 C 1421.808594 767.089844 1411.421875 774.097656 1397.488281 776.308594 M 876.386719 736.519531 C 876.386719 735.640625 876.402344 734.753906 876.433594 733.859375 C 876.53125 730.996094 876.765625 728.050781 877.121094 725.039062 C 877.125 725.011719 877.128906 724.988281 877.132812 724.960938 C 876.65625 728.953125 876.394531 732.820312 876.386719 736.519531 M 880.3125 707.441406 C 880.40625 707.050781 880.496094 706.660156 880.59375 706.265625 C 880.601562 706.226562 880.613281 706.183594 880.621094 706.144531 C 880.519531 706.574219 880.414062 707.007812 880.3125 707.441406 M 1358.171875 693.265625 L 1358.171875 518.941406 L 1363.910156 517.660156 C 1365.480469 517.371094 1366.941406 517.191406 1368.449219 517.039062 C 1369.609375 516.941406 1370.691406 516.898438 1371.730469 516.898438 C 1371.929688 516.898438 1372.128906 516.898438 1372.328125 516.910156 C 1373.890625 516.78125 1375.398438 516.71875 1376.878906 516.71875 C 1385.148438 516.71875 1392.210938 518.679688 1398.160156 522.398438 C 1398.339844 522.5 1398.53125 522.609375 1398.710938 522.730469 C 1399.089844 522.980469 1399.488281 523.210938 1399.859375 523.480469 C 1400.140625 523.679688 1400.390625 523.890625 1400.640625 524.078125 C 1400.75 524.160156 1400.871094 524.261719 1400.96875 524.339844 C 1401.238281 524.539062 1401.519531 524.738281 1401.789062 524.960938 C 1402.238281 525.328125 1402.699219 525.710938 1403.148438 526.109375 C 1403.398438 526.328125 1403.648438 526.578125 1403.898438 526.808594 C 1404.148438 527.039062 1404.398438 527.289062 1404.648438 527.519531 C 1405.171875 528.039062 1405.660156 528.570312 1406.160156 529.121094 C 1406.359375 529.320312 1406.558594 529.519531 1406.75 529.738281 C 1406.929688 529.949219 1407.109375 530.199219 1407.289062 530.429688 C 1407.789062 531.019531 1408.28125 531.621094 1408.738281 532.25 C 1408.929688 532.480469 1409.109375 532.71875 1409.28125 532.949219 C 1409.488281 533.25 1409.691406 533.558594 1409.910156 533.859375 C 1410.269531 534.410156 1410.640625 534.960938 1411.011719 535.53125 C 1411.238281 535.890625 1411.46875 536.28125 1411.710938 536.679688 C 1411.921875 537.039062 1412.140625 537.429688 1412.351562 537.808594 C 1412.601562 538.238281 1412.839844 538.671875 1413.070312 539.109375 C 1413.371094 539.660156 1413.640625 540.21875 1413.898438 540.789062 C 1414.121094 541.21875 1414.328125 541.648438 1414.550781 542.101562 C 1414.679688 542.398438 1414.828125 542.679688 1414.96875 543 C 1415.300781 543.78125 1415.628906 544.601562 1415.949219 545.390625 C 1416.128906 545.851562 1416.308594 546.261719 1416.480469 546.710938 C 1416.550781 546.859375 1416.601562 547.011719 1416.660156 547.179688 C 1417.199219 548.621094 1417.710938 550.109375 1418.179688 551.640625 C 1418.511719 553.519531 1418.789062 555.359375 1419.050781 557.191406 C 1419.078125 557.558594 1419.128906 557.929688 1419.179688 558.308594 C 1419.378906 560.019531 1419.539062 561.738281 1419.640625 563.398438 L 1419.679688 563.671875 C 1419.691406 563.929688 1419.710938 564.199219 1419.730469 564.46875 C 1419.808594 565.960938 1419.839844 567.449219 1419.828125 568.910156 C 1419.589844 583.289062 1414.289062 595.039062 1398.910156 600.25 C 1403.289062 600.730469 1407.289062 601.828125 1410.921875 603.488281 C 1412.769531 604.339844 1414.550781 605.289062 1416.199219 606.421875 C 1417.28125 607.148438 1418.308594 607.949219 1419.328125 608.820312 C 1421.769531 610.910156 1423.96875 613.410156 1425.96875 616.191406 C 1426.070312 616.308594 1426.148438 616.441406 1426.25 616.570312 C 1427.011719 617.648438 1427.730469 618.78125 1428.429688 619.949219 C 1428.601562 620.21875 1428.75 620.460938 1428.898438 620.730469 C 1429.511719 621.808594 1430.089844 622.929688 1430.660156 624.089844 C 1430.839844 624.460938 1431.03125 624.808594 1431.191406 625.171875 C 1431.71875 626.308594 1432.21875 627.488281 1432.691406 628.699219 C 1432.859375 629.101562 1433.039062 629.480469 1433.191406 629.898438 C 1433.789062 631.5 1434.371094 633.148438 1434.898438 634.878906 C 1439.25 658.789062 1427.949219 682.148438 1400.210938 687.164062 L 1399.539062 687.296875 C 1399.109375 687.398438 1398.691406 687.511719 1398.261719 687.597656 L 1393.609375 688.539062 C 1393.601562 688.539062 1393.578125 688.539062 1393.558594 688.539062 C 1390.621094 688.539062 1387.539062 688.78125 1384.289062 689.265625 C 1384.03125 689.261719 1383.761719 689.257812 1383.480469 689.257812 C 1381.789062 689.257812 1379.949219 689.386719 1377.96875 689.652344 C 1377.511719 689.714844 1377.039062 689.78125 1376.558594 689.859375 L 1358.171875 693.265625 M 884.390625 692.414062 C 884.46875 692.15625 884.546875 691.898438 884.628906 691.640625 C 884.675781 691.488281 884.722656 691.339844 884.769531 691.1875 C 884.640625 691.597656 884.515625 692.007812 884.390625 692.414062 M 1008.269531 642.820312 C 1008.121094 642.820312 1007.890625 642.609375 1007.699219 641.46875 C 1007.71875 633.941406 1007.910156 624.46875 1008.410156 612.828125 C 1007.910156 624.480469 1007.71875 633.929688 1007.699219 641.449219 C 1007.898438 642.609375 1008.128906 642.808594 1008.28125 642.808594 C 1008.339844 642.808594 1008.390625 642.769531 1008.410156 642.75 C 1008.390625 642.769531 1008.339844 642.820312 1008.269531 642.820312 M 1008.410156 642.75 L 1017.601562 636.179688 L 1008.410156 642.75 M 1008.410156 612.828125 C 1009.78125 608.910156 1011.140625 605.378906 1012.480469 602.121094 C 1012.128906 602.980469 1011.78125 603.859375 1011.429688 604.761719 C 1010.429688 607.269531 1009.421875 609.949219 1008.410156 612.828125 M 910.5625 611.519531 L 911.816406 607.5 C 912.480469 605.050781 913.265625 602.640625 914.164062 600.269531 C 913.265625 602.640625 912.484375 605.050781 911.820312 607.5 L 910.5625 611.519531 M 1013.289062 600.179688 C 1014.519531 597.261719 1015.71875 594.570312 1016.890625 592.011719 C 1016.53125 592.789062 1016.171875 593.589844 1015.808594 594.398438 C 1014.988281 596.238281 1014.148438 598.160156 1013.289062 600.179688 M 1017.761719 590.078125 C 1018.96875 587.441406 1020.121094 584.929688 1021.199219 582.460938 C 1020.511719 584.03125 1019.808594 585.621094 1019.070312 587.210938 C 1018.640625 588.160156 1018.210938 589.109375 1017.761719 590.078125 M 1023.449219 577.03125 C 1023.480469 576.949219 1023.511719 576.859375 1023.539062 576.78125 C 1023.519531 576.839844 1023.5 576.890625 1023.480469 576.949219 C 1023.46875 576.96875 1023.460938 577 1023.449219 577.03125 M 1029.871094 549.980469 C 1030.058594 548.648438 1030.238281 547.328125 1030.398438 546.03125 C 1030.359375 546.371094 1030.308594 546.710938 1030.269531 547.039062 C 1030.148438 548.019531 1030.011719 548.988281 1029.871094 549.980469 M 948.65625 520.039062 C 948.914062 505.210938 948.632812 463.070312 948.636719 453.78125 C 948.957031 453.609375 949.261719 453.449219 949.578125 453.28125 L 949.578125 518.921875 L 949.109375 520 L 948.65625 520.039062 "/>
</clipPath>
<clipPath id="clip-5">
<path clip-rule="nonzero" d="M 1120.378906 1186.820312 L 1093.25 1173.25 L 1126.539062 1106.640625 L 1093.25 1173.25 L 1120.378906 1186.820312 M 1106.519531 1096.28125 L 1106.511719 1096.269531 L 1108.878906 1091.539062 L 1108.878906 1091.550781 L 1106.519531 1096.28125 M 1179.800781 1043 L 1179.789062 1043 C 1199.878906 1032.421875 1217.488281 1020.738281 1232.921875 1008.550781 L 1232.921875 1008.558594 C 1228.371094 1012.148438 1223.628906 1015.699219 1218.699219 1019.191406 C 1211.539062 1024.25 1203.960938 1029.191406 1195.941406 1033.96875 C 1190.738281 1037.050781 1185.359375 1040.070312 1179.800781 1043 M 831.433594 1042.390625 L 817.703125 1035.53125 L 831.4375 1042.378906 L 831.433594 1042.390625 M 902.792969 954.003906 L 903.699219 952.191406 L 889.808594 844.582031 L 903.699219 952.191406 L 902.792969 954.003906 M 1358.171875 869.417969 L 1358.171875 783.3125 L 1397.488281 776.308594 L 1388.570312 777.90625 C 1389.191406 778.074219 1389.789062 778.289062 1390.390625 778.488281 C 1390.539062 778.539062 1390.691406 778.589844 1390.851562 778.640625 C 1391.898438 779.003906 1392.929688 779.390625 1393.949219 779.839844 C 1394.128906 779.921875 1394.300781 780.003906 1394.480469 780.089844 C 1395.449219 780.535156 1396.378906 781.019531 1397.289062 781.550781 C 1397.511719 781.667969 1397.710938 781.800781 1397.910156 781.917969 C 1398.769531 782.433594 1399.621094 782.984375 1400.441406 783.582031 C 1400.671875 783.75 1400.890625 783.933594 1401.121094 784.113281 C 1401.890625 784.695312 1402.648438 785.296875 1403.371094 785.960938 C 1403.628906 786.179688 1403.871094 786.429688 1404.121094 786.660156 C 1404.800781 787.292969 1405.460938 787.941406 1406.101562 788.640625 C 1406.378906 788.941406 1406.648438 789.273438 1406.910156 789.570312 C 1407.488281 790.257812 1408.078125 790.9375 1408.640625 791.671875 C 1408.929688 792.054688 1409.210938 792.46875 1409.488281 792.867188 C 1409.988281 793.566406 1410.488281 794.25 1410.96875 794.996094 C 1411.269531 795.480469 1411.570312 796.015625 1411.871094 796.511719 C 1412.289062 797.210938 1412.699219 797.910156 1413.101562 798.644531 C 1413.441406 799.257812 1413.730469 799.925781 1414.050781 800.554688 C 1414.179688 800.839844 1414.328125 801.121094 1414.46875 801.40625 C 1414.519531 801.523438 1414.570312 801.621094 1414.621094 801.722656 C 1414.75 802.019531 1414.898438 802.304688 1415.03125 802.601562 C 1415.398438 803.417969 1415.730469 804.285156 1416.070312 805.132812 C 1416.148438 805.332031 1416.230469 805.515625 1416.308594 805.714844 C 1416.410156 805.980469 1416.53125 806.214844 1416.628906 806.464844 C 1416.679688 806.597656 1416.730469 806.730469 1416.78125 806.863281 C 1417.308594 808.296875 1417.808594 809.777344 1418.339844 811.574219 C 1418.539062 812.753906 1418.710938 813.921875 1418.808594 815.101562 C 1419.011719 816.847656 1419.128906 818.597656 1419.128906 820.34375 C 1419.128906 821.808594 1419.058594 823.273438 1418.929688 824.734375 C 1418.660156 827.632812 1418.128906 830.476562 1417.328125 833.222656 C 1415.351562 840.113281 1411.738281 846.402344 1406.601562 851.5625 C 1403.519531 854.640625 1399.890625 857.320312 1395.730469 859.449219 C 1393.878906 860.398438 1391.878906 861.195312 1389.820312 861.929688 C 1387.238281 862.84375 1384.558594 863.609375 1381.671875 864.125 L 1358.171875 869.417969 M 1397.488281 776.308594 C 1413.039062 773.828125 1424.191406 765.398438 1430.320312 754.253906 C 1429.679688 755.425781 1428.980469 756.566406 1428.230469 757.671875 C 1421.808594 767.089844 1411.421875 774.097656 1397.488281 776.308594 M 876.386719 736.519531 C 876.386719 735.640625 876.402344 734.753906 876.433594 733.859375 C 876.53125 730.996094 876.765625 728.050781 877.121094 725.039062 C 877.125 725.011719 877.128906 724.988281 877.132812 724.960938 C 876.65625 728.953125 876.394531 732.820312 876.386719 736.519531 M 880.3125 707.441406 C 880.40625 707.050781 880.496094 706.660156 880.59375 706.265625 C 880.601562 706.226562 880.613281 706.183594 880.621094 706.144531 C 880.519531 706.574219 880.414062 707.007812 880.3125 707.441406 M 1358.171875 693.265625 L 1358.171875 518.941406 L 1363.910156 517.660156 C 1365.480469 517.371094 1366.941406 517.191406 1368.449219 517.039062 C 1369.609375 516.941406 1370.691406 516.898438 1371.730469 516.898438 C 1371.929688 516.898438 1372.128906 516.898438 1372.328125 516.910156 C 1373.890625 516.78125 1375.398438 516.71875 1376.878906 516.71875 C 1385.148438 516.71875 1392.210938 518.679688 1398.160156 522.398438 C 1398.339844 522.5 1398.53125 522.609375 1398.710938 522.730469 C 1399.089844 522.980469 1399.488281 523.210938 1399.859375 523.480469 C 1400.140625 523.679688 1400.390625 523.890625 1400.640625 524.078125 C 1400.75 524.160156 1400.871094 524.261719 1400.96875 524.339844 C 1401.238281 524.539062 1401.519531 524.738281 1401.789062 524.960938 C 1402.238281 525.328125 1402.699219 525.710938 1403.148438 526.109375 C 1403.398438 526.328125 1403.648438 526.578125 1403.898438 526.808594 C 1404.148438 527.039062 1404.398438 527.289062 1404.648438 527.519531 C 1405.171875 528.039062 1405.660156 528.570312 1406.160156 529.121094 C 1406.359375 529.320312 1406.558594 529.519531 1406.75 529.738281 C 1406.929688 529.949219 1407.109375 530.199219 1407.289062 530.429688 C 1407.789062 531.019531 1408.28125 531.621094 1408.738281 532.25 C 1408.929688 532.480469 1409.109375 532.71875 1409.28125 532.949219 C 1409.488281 533.25 1409.691406 533.558594 1409.910156 533.859375 C 1410.269531 534.410156 1410.640625 534.960938 1411.011719 535.53125 C 1411.238281 535.890625 1411.46875 536.28125 1411.710938 536.679688 C 1411.921875 537.039062 1412.140625 537.429688 1412.351562 537.808594 C 1412.601562 538.238281 1412.839844 538.671875 1413.070312 539.109375 C 1413.371094 539.660156 1413.640625 540.21875 1413.898438 540.789062 C 1414.121094 541.21875 1414.328125 541.648438 1414.550781 542.101562 C 1414.679688 542.398438 1414.828125 542.679688 1414.96875 543 C 1415.300781 543.78125 1415.628906 544.601562 1415.949219 545.390625 C 1416.128906 545.851562 1416.308594 546.261719 1416.480469 546.710938 C 1416.550781 546.859375 1416.601562 547.011719 1416.660156 547.179688 C 1417.199219 548.621094 1417.710938 550.109375 1418.179688 551.640625 C 1418.511719 553.519531 1418.789062 555.359375 1419.050781 557.191406 C 1419.078125 557.558594 1419.128906 557.929688 1419.179688 558.308594 C 1419.378906 560.019531 1419.539062 561.738281 1419.640625 563.398438 L 1419.679688 563.671875 C 1419.691406 563.929688 1419.710938 564.199219 1419.730469 564.46875 C 1419.808594 565.960938 1419.839844 567.449219 1419.828125 568.910156 C 1419.589844 583.289062 1414.289062 595.039062 1398.910156 600.25 C 1403.289062 600.730469 1407.289062 601.828125 1410.921875 603.488281 C 1412.769531 604.339844 1414.550781 605.289062 1416.199219 606.421875 C 1417.28125 607.148438 1418.308594 607.949219 1419.328125 608.820312 C 1421.769531 610.910156 1423.96875 613.410156 1425.96875 616.191406 C 1426.070312 616.308594 1426.148438 616.441406 1426.25 616.570312 C 1427.011719 617.648438 1427.730469 618.78125 1428.429688 619.949219 C 1428.601562 620.21875 1428.75 620.460938 1428.898438 620.730469 C 1429.511719 621.808594 1430.089844 622.929688 1430.660156 624.089844 C 1430.839844 624.460938 1431.03125 624.808594 1431.191406 625.171875 C 1431.71875 626.308594 1432.21875 627.488281 1432.691406 628.699219 C 1432.859375 629.101562 1433.039062 629.480469 1433.191406 629.898438 C 1433.789062 631.5 1434.371094 633.148438 1434.898438 634.878906 C 1439.25 658.789062 1427.949219 682.148438 1400.210938 687.164062 L 1399.539062 687.296875 C 1399.109375 687.398438 1398.691406 687.511719 1398.261719 687.597656 L 1393.609375 688.539062 C 1393.601562 688.539062 1393.578125 688.539062 1393.558594 688.539062 C 1390.621094 688.539062 1387.539062 688.78125 1384.289062 689.265625 C 1384.03125 689.261719 1383.761719 689.257812 1383.480469 689.257812 C 1381.789062 689.257812 1379.949219 689.386719 1377.96875 689.652344 C 1377.511719 689.714844 1377.039062 689.78125 1376.558594 689.859375 L 1358.171875 693.265625 M 884.390625 692.414062 C 884.46875 692.15625 884.546875 691.898438 884.628906 691.640625 C 884.675781 691.488281 884.722656 691.339844 884.769531 691.1875 C 884.640625 691.597656 884.515625 692.007812 884.390625 692.414062 M 1008.269531 642.820312 C 1008.121094 642.820312 1007.890625 642.609375 1007.699219 641.46875 C 1007.71875 633.941406 1007.910156 624.46875 1008.410156 612.828125 C 1007.910156 624.480469 1007.71875 633.929688 1007.699219 641.449219 C 1007.898438 642.609375 1008.128906 642.808594 1008.28125 642.808594 C 1008.339844 642.808594 1008.390625 642.769531 1008.410156 642.75 C 1008.390625 642.769531 1008.339844 642.820312 1008.269531 642.820312 M 1008.410156 642.75 L 1017.601562 636.179688 L 1008.410156 642.75 M 1008.410156 612.828125 C 1009.78125 608.910156 1011.140625 605.378906 1012.480469 602.121094 C 1012.128906 602.980469 1011.78125 603.859375 1011.429688 604.761719 C 1010.429688 607.269531 1009.421875 609.949219 1008.410156 612.828125 M 910.5625 611.519531 L 911.816406 607.5 C 912.480469 605.050781 913.265625 602.640625 914.164062 600.269531 C 913.265625 602.640625 912.484375 605.050781 911.820312 607.5 L 910.5625 611.519531 M 1013.289062 600.179688 C 1014.519531 597.261719 1015.71875 594.570312 1016.890625 592.011719 C 1016.53125 592.789062 1016.171875 593.589844 1015.808594 594.398438 C 1014.988281 596.238281 1014.148438 598.160156 1013.289062 600.179688 M 1017.761719 590.078125 C 1018.96875 587.441406 1020.121094 584.929688 1021.199219 582.460938 C 1020.511719 584.03125 1019.808594 585.621094 1019.070312 587.210938 C 1018.640625 588.160156 1018.210938 589.109375 1017.761719 590.078125 M 1023.449219 577.03125 C 1023.480469 576.949219 1023.511719 576.859375 1023.539062 576.78125 C 1023.519531 576.839844 1023.5 576.890625 1023.480469 576.949219 C 1023.46875 576.96875 1023.460938 577 1023.449219 577.03125 M 1029.871094 549.980469 C 1030.058594 548.648438 1030.238281 547.328125 1030.398438 546.03125 C 1030.359375 546.371094 1030.308594 546.710938 1030.269531 547.039062 C 1030.148438 548.019531 1030.011719 548.988281 1029.871094 549.980469 M 948.65625 520.039062 C 948.914062 505.210938 948.632812 463.070312 948.636719 453.78125 C 948.957031 453.609375 949.261719 453.449219 949.578125 453.28125 L 949.578125 518.921875 L 949.109375 520 L 948.65625 520.039062 "/>
</clipPath>
<linearGradient id="linear-pattern-1" gradientUnits="userSpaceOnUse" x1="0.232321" y1="0" x2="0.845495" y2="0" gradientTransform="matrix(839.943, -1307.86, 1307.86, 839.943, 635.705, 1499.1)">
<stop offset="0" stop-color="rgb(62.495422%, 47.592163%, 82.495117%)" stop-opacity="1"/>
<stop offset="0.015625" stop-color="rgb(62.376404%, 47.520447%, 82.376099%)" stop-opacity="1"/>
<stop offset="0.03125" stop-color="rgb(62.138367%, 47.450256%, 82.139587%)" stop-opacity="1"/>
<stop offset="0.0390625" stop-color="rgb(61.990356%, 47.421265%, 81.933594%)" stop-opacity="1"/>
<stop offset="0.046875" stop-color="rgb(61.959839%, 47.33429%, 81.7276%)" stop-opacity="1"/>
<stop offset="0.0546875" stop-color="rgb(61.959839%, 47.215271%, 81.491089%)" stop-opacity="1"/>
<stop offset="0.0625" stop-color="rgb(61.949158%, 47.106934%, 81.272888%)" stop-opacity="1"/>
<stop offset="0.09375" stop-color="rgb(61.753845%, 47.007751%, 81.124878%)" stop-opacity="1"/>
<stop offset="0.109375" stop-color="rgb(61.567688%, 46.838379%, 80.955505%)" stop-opacity="1"/>
<stop offset="0.125" stop-color="rgb(61.567688%, 46.69342%, 80.718994%)" stop-opacity="1"/>
<stop offset="0.140625" stop-color="rgb(61.553955%, 46.652222%, 80.482483%)" stop-opacity="1"/>
<stop offset="0.15625" stop-color="rgb(61.421204%, 46.51947%, 80.245972%)" stop-opacity="1"/>
<stop offset="0.171875" stop-color="rgb(61.184692%, 46.337891%, 79.956055%)" stop-opacity="1"/>
<stop offset="0.179688" stop-color="rgb(61.00769%, 46.273804%, 79.664612%)" stop-opacity="1"/>
<stop offset="0.1875" stop-color="rgb(60.890198%, 46.273804%, 79.426575%)" stop-opacity="1"/>
<stop offset="0.203125" stop-color="rgb(60.806274%, 46.179199%, 79.167175%)" stop-opacity="1"/>
<stop offset="0.21875" stop-color="rgb(60.783386%, 45.982361%, 78.90625%)" stop-opacity="1"/>
<stop offset="0.234375" stop-color="rgb(60.783386%, 45.881653%, 78.669739%)" stop-opacity="1"/>
<stop offset="0.25" stop-color="rgb(60.725403%, 45.823669%, 78.433228%)" stop-opacity="1"/>
<stop offset="0.265625" stop-color="rgb(60.549927%, 45.646667%, 78.196716%)" stop-opacity="1"/>
<stop offset="0.28125" stop-color="rgb(60.31189%, 45.509338%, 78.057861%)" stop-opacity="1"/>
<stop offset="0.296875" stop-color="rgb(60.096741%, 45.46814%, 77.996826%)" stop-opacity="1"/>
<stop offset="0.304688" stop-color="rgb(59.999084%, 45.388794%, 77.838135%)" stop-opacity="1"/>
<stop offset="0.3125" stop-color="rgb(59.999084%, 45.271301%, 77.600098%)" stop-opacity="1"/>
<stop offset="0.328125" stop-color="rgb(59.938049%, 45.153809%, 77.307129%)" stop-opacity="1"/>
<stop offset="0.34375" stop-color="rgb(59.757996%, 45.097351%, 77.012634%)" stop-opacity="1"/>
<stop offset="0.359375" stop-color="rgb(59.623718%, 44.995117%, 76.776123%)" stop-opacity="1"/>
<stop offset="0.375" stop-color="rgb(59.58252%, 44.799805%, 76.539612%)" stop-opacity="1"/>
<stop offset="0.390625" stop-color="rgb(59.440613%, 44.7052%, 76.303101%)" stop-opacity="1"/>
<stop offset="0.40625" stop-color="rgb(59.268188%, 44.639587%, 76.066589%)" stop-opacity="1"/>
<stop offset="0.421875" stop-color="rgb(59.214783%, 44.456482%, 75.830078%)" stop-opacity="1"/>
<stop offset="0.429688" stop-color="rgb(59.169006%, 44.325256%, 75.605774%)" stop-opacity="1"/>
<stop offset="0.4375" stop-color="rgb(59.063721%, 44.313049%, 75.38147%)" stop-opacity="1"/>
<stop offset="0.453125" stop-color="rgb(58.885193%, 44.313049%, 75.082397%)" stop-opacity="1"/>
<stop offset="0.46875" stop-color="rgb(58.648682%, 44.313049%, 74.900818%)" stop-opacity="1"/>
<stop offset="0.5" stop-color="rgb(58.480835%, 44.125366%, 74.714661%)" stop-opacity="1"/>
<stop offset="0.515625" stop-color="rgb(58.430481%, 43.930054%, 74.409485%)" stop-opacity="1"/>
<stop offset="0.53125" stop-color="rgb(58.398438%, 43.888855%, 74.172974%)" stop-opacity="1"/>
<stop offset="0.546875" stop-color="rgb(58.248901%, 43.739319%, 73.936462%)" stop-opacity="1"/>
<stop offset="0.5625" stop-color="rgb(58.01239%, 43.574524%, 73.626709%)" stop-opacity="1"/>
<stop offset="0.570312" stop-color="rgb(57.835388%, 43.528748%, 73.318481%)" stop-opacity="1"/>
<stop offset="0.578125" stop-color="rgb(57.717896%, 43.528748%, 73.08197%)" stop-opacity="1"/>
<stop offset="0.59375" stop-color="rgb(57.652283%, 43.415833%, 72.839355%)" stop-opacity="1"/>
<stop offset="0.609375" stop-color="rgb(57.611084%, 43.22052%, 72.596741%)" stop-opacity="1"/>
<stop offset="0.625" stop-color="rgb(57.458496%, 43.136597%, 72.360229%)" stop-opacity="1"/>
<stop offset="0.640625" stop-color="rgb(57.296753%, 43.060303%, 72.123718%)" stop-opacity="1"/>
<stop offset="0.65625" stop-color="rgb(57.254028%, 42.866516%, 71.887207%)" stop-opacity="1"/>
<stop offset="0.671875" stop-color="rgb(57.138062%, 42.745972%, 71.766663%)" stop-opacity="1"/>
<stop offset="0.6875" stop-color="rgb(56.941223%, 42.706299%, 71.687317%)" stop-opacity="1"/>
<stop offset="0.695312" stop-color="rgb(56.861877%, 42.608643%, 71.492004%)" stop-opacity="1"/>
<stop offset="0.703125" stop-color="rgb(56.861877%, 42.489624%, 71.255493%)" stop-opacity="1"/>
<stop offset="0.71875" stop-color="rgb(56.782532%, 42.391968%, 70.979309%)" stop-opacity="1"/>
<stop offset="0.734375" stop-color="rgb(56.585693%, 42.350769%, 70.703125%)" stop-opacity="1"/>
<stop offset="0.75" stop-color="rgb(56.349182%, 42.23175%, 70.466614%)" stop-opacity="1"/>
<stop offset="0.765625" stop-color="rgb(56.15387%, 42.036438%, 70.230103%)" stop-opacity="1"/>
<stop offset="0.78125" stop-color="rgb(56.077576%, 41.960144%, 69.993591%)" stop-opacity="1"/>
<stop offset="0.796875" stop-color="rgb(56.077576%, 41.877747%, 69.75708%)" stop-opacity="1"/>
<stop offset="0.8125" stop-color="rgb(56.072998%, 41.680908%, 69.514465%)" stop-opacity="1"/>
<stop offset="0.820313" stop-color="rgb(56.008911%, 41.567993%, 69.273376%)" stop-opacity="1"/>
<stop offset="0.828125" stop-color="rgb(55.891418%, 41.567993%, 69.036865%)" stop-opacity="1"/>
<stop offset="0.84375" stop-color="rgb(55.712891%, 41.522217%, 68.772888%)" stop-opacity="1"/>
<stop offset="0.875" stop-color="rgb(55.444336%, 41.326904%, 68.540955%)" stop-opacity="1"/>
<stop offset="0.890625" stop-color="rgb(55.293274%, 41.166687%, 68.336487%)" stop-opacity="1"/>
<stop offset="0.90625" stop-color="rgb(55.293274%, 41.040039%, 68.099976%)" stop-opacity="1"/>
<stop offset="0.921875" stop-color="rgb(55.244446%, 40.852356%, 67.814636%)" stop-opacity="1"/>
<stop offset="0.929688" stop-color="rgb(55.136108%, 40.783691%, 67.529297%)" stop-opacity="1"/>
<stop offset="0.9375" stop-color="rgb(55.018616%, 40.783691%, 67.29126%)" stop-opacity="1"/>
<stop offset="0.953125" stop-color="rgb(54.840088%, 40.693665%, 67.025757%)" stop-opacity="1"/>
<stop offset="0.96875" stop-color="rgb(54.615784%, 40.498352%, 66.760254%)" stop-opacity="1"/>
<stop offset="0.984375" stop-color="rgb(54.508972%, 40.391541%, 66.523743%)" stop-opacity="1"/>
<stop offset="1" stop-color="rgb(54.457092%, 40.338135%, 66.287231%)" stop-opacity="1"/>
</linearGradient>
<clipPath id="clip-6">
<path clip-rule="nonzero" d="M 1093 1173 L 1121 1173 L 1121 1187 L 1093 1187 Z M 1093 1173 "/>
</clipPath>
<clipPath id="clip-7">
<path clip-rule="nonzero" d="M 1120.378906 1186.820312 L 1093.238281 1173.261719 L 1093.25 1173.25 L 1120.378906 1186.820312 "/>
</clipPath>
<clipPath id="clip-8">
<path clip-rule="nonzero" d="M 1120.378906 1186.820312 L 1093.238281 1173.261719 L 1093.25 1173.25 L 1120.378906 1186.820312 "/>
</clipPath>
<linearGradient id="linear-pattern-2" gradientUnits="userSpaceOnUse" x1="0.328113" y1="0" x2="0.344894" y2="0" gradientTransform="matrix(839.943, -1307.86, 1307.86, 839.943, 635.705, 1499.1)">
<stop offset="0" stop-color="rgb(55.422974%, 41.696167%, 72.285461%)" stop-opacity="1"/>
<stop offset="0.5" stop-color="rgb(55.319214%, 41.63208%, 72.142029%)" stop-opacity="1"/>
<stop offset="0.75" stop-color="rgb(55.163574%, 41.567993%, 71.896362%)" stop-opacity="1"/>
<stop offset="1" stop-color="rgb(55.059814%, 41.567993%, 71.688843%)" stop-opacity="1"/>
</linearGradient>
</defs>
<path fill-rule="nonzero" fill="rgb(65.429688%, 50.584412%, 88.671875%)" fill-opacity="1" d="M 1758 868.5 C 1758 1134.96875 1518.238281 1351 1222.5 1351 C 926.757812 1351 687 1134.96875 687 868.5 C 687 602.011719 926.757812 386 1222.5 386 C 1518.238281 386 1758 602.011719 1758 868.5 "/>
<g clip-path="url(#clip-0)">
<g clip-path="url(#clip-1)">
<g clip-path="url(#clip-2)">
<path fill-rule="nonzero" fill="url(#linear-pattern-0)" d="M 947.800781 453.242188 L 949.6875 454.453125 L 950.957031 452.476562 L 949.070312 451.265625 Z M 947.800781 453.242188 "/>
</g>
</g>
</g>
<g clip-path="url(#clip-3)">
<g clip-path="url(#clip-4)">
<g clip-path="url(#clip-5)">
<path fill-rule="nonzero" fill="url(#linear-pattern-1)" d="M 484.171875 972.617188 L 1257.75 1469.429688 L 1772.78125 667.484375 L 999.203125 170.671875 Z M 484.171875 972.617188 "/>
</g>
</g>
</g>
<path fill-rule="nonzero" fill="rgb(93.75%, 78.90625%, 61.131287%)" fill-opacity="1" d="M 1117.191406 610.160156 L 1008.410156 665.550781 C 1008.410156 665.550781 1006.789062 650.671875 1008.410156 612.828125 C 1016.480469 589.738281 1024.441406 579.859375 1027.929688 561.648438 C 1035.648438 521.460938 1030.78125 490.308594 1030.78125 490.308594 C 1022.019531 448.03125 990.074219 438.808594 968.691406 442.46875 C 984.273438 440.871094 1022.109375 452.511719 1022.109375 493.738281 C 1022.109375 540.351562 1018.230469 559.71875 1018.230469 559.71875 L 994.941406 610.160156 L 994.941406 691.65625 C 994.941406 691.65625 1022.109375 705.253906 1022.109375 810.023438 C 1022.109375 901.21875 1022.109375 920.621094 1022.109375 920.621094 C 1022.109375 920.621094 1016.480469 976.902344 1090.449219 976.902344 C 1156.410156 976.902344 1263.128906 976.902344 1263.128906 976.902344 L 1117.191406 610.160156 "/>
<path fill-rule="nonzero" fill="rgb(97.264099%, 83.59375%, 67.381287%)" fill-opacity="1" d="M 1337.898438 852.710938 C 1337.898438 852.710938 1313.210938 977.539062 1170.550781 1047.710938 C 1158.691406 1053.550781 1139.160156 1062.300781 1121.878906 1065.53125 L 1072.488281 1164.351562 L 1069.621094 1170.101562 L 1069.589844 1170.160156 L 849.691406 1060.238281 L 850.308594 1058.988281 L 903.699219 952.191406 L 876.578125 742.109375 C 874.988281 720.910156 883.371094 692.640625 893.070312 667.410156 L 911.820312 607.5 C 913.078125 602.859375 914.761719 598.351562 916.871094 594.019531 L 949.578125 518.921875 L 949.578125 452.839844 C 952.128906 448.039062 959.429688 444.03125 968.71875 442.449219 C 990.101562 438.800781 1022.03125 448.050781 1030.78125 490.308594 C 1030.78125 490.308594 1035.648438 521.46875 1027.929688 561.648438 C 1024.441406 579.859375 1016.46875 589.75 1008.410156 612.828125 C 1006.070312 645.730469 1008.410156 642.75 1008.410156 642.75 L 1033.109375 625.089844 L 1057.71875 607.480469 L 1337.898438 852.710938 "/>
<path fill-rule="nonzero" fill="rgb(71.679688%, 56.834412%, 41.184998%)" fill-opacity="1" d="M 1222.730469 976.453125 L 1081.261719 976.453125 C 1071.28125 976.453125 1062 973.4375 1054.289062 968.265625 L 1220.128906 968.265625 L 1222.730469 976.453125 "/>
<path fill-rule="nonzero" fill="rgb(35.693359%, 35.693359%, 35.693359%)" fill-opacity="1" d="M 1343.039062 968.265625 L 1047.890625 968.265625 C 1039.53125 968.265625 1032.761719 961.492188 1032.761719 953.136719 L 1032.761719 373.128906 C 1032.761719 364.769531 1039.53125 358 1047.890625 358 L 1343.039062 358 C 1351.398438 358 1358.171875 364.769531 1358.171875 373.128906 L 1358.171875 953.136719 C 1358.171875 961.492188 1351.398438 968.265625 1343.039062 968.265625 "/>
<path fill-rule="nonzero" fill="rgb(74.021912%, 80.076599%, 83.201599%)" fill-opacity="1" d="M 864.875 975.488281 L 780.222656 1144.851562 L 1042.039062 1275.710938 L 1126.679688 1106.359375 L 864.875 975.488281 "/>
<path fill-rule="nonzero" fill="rgb(91.014099%, 36.473083%, 36.473083%)" fill-opacity="1" d="M 817.703125 1035.53125 L 450 1626 L 929 1626 L 1120.378906 1186.820312 L 817.703125 1035.53125 "/>
<g clip-path="url(#clip-6)">
<g clip-path="url(#clip-7)">
<g clip-path="url(#clip-8)">
<path fill-rule="nonzero" fill="url(#linear-pattern-2)" d="M 1087.070312 1182.855469 L 1112.453125 1199.160156 L 1126.550781 1177.210938 L 1101.164062 1160.910156 Z M 1087.070312 1182.855469 "/>
</g>
</g>
</g>
<path fill-rule="nonzero" fill="rgb(66.601562%, 72.068787%, 74.804688%)" fill-opacity="1" d="M 1093.238281 1173.261719 L 1011.910156 1132.601562 L 1011.921875 1132.601562 L 1093.25 1173.25 L 1093.238281 1173.261719 "/>
<path fill-rule="nonzero" fill="rgb(82.03125%, 32.93457%, 32.93457%)" fill-opacity="1" d="M 929 1626 L 715 1626 L 1011.921875 1132.601562 L 1093.238281 1173.261719 L 1120.378906 1186.820312 L 1058.828125 1328.050781 L 929 1626 "/>
<path fill-rule="nonzero" fill="rgb(100%, 100%, 100%)" fill-opacity="1" d="M 1059.839844 1230.230469 C 1071.609375 1231.359375 1082.058594 1222.761719 1083.199219 1211 C 1084.339844 1199.230469 1075.730469 1188.78125 1063.96875 1187.628906 C 1052.199219 1186.5 1041.75 1195.101562 1040.609375 1206.871094 C 1039.480469 1218.628906 1048.078125 1229.078125 1059.839844 1230.230469 "/>
<path fill-rule="nonzero" fill="rgb(100%, 100%, 100%)" fill-opacity="1" d="M 1027.839844 1297.230469 C 1039.609375 1298.359375 1050.058594 1289.761719 1051.199219 1278 C 1052.339844 1266.230469 1043.730469 1255.78125 1031.96875 1254.628906 C 1020.199219 1253.5 1009.75 1262.101562 1008.609375 1273.871094 C 1007.480469 1285.628906 1016.078125 1296.078125 1027.839844 1297.230469 "/>
<path fill-rule="nonzero" fill="rgb(16.088867%, 66.992188%, 88.671875%)" fill-opacity="1" d="M 1053.800781 873.144531 L 1337.140625 873.144531 L 1337.140625 452.453125 L 1053.800781 452.453125 Z M 1053.800781 873.144531 "/>
<path fill-rule="nonzero" fill="rgb(30.589294%, 29.417419%, 27.830505%)" fill-opacity="1" d="M 1337.140625 613.539062 L 1337.140625 527.238281 L 1344.671875 525.539062 L 1344.671875 612.011719 L 1337.140625 613.539062 "/>
<path fill-rule="nonzero" fill="rgb(13.719177%, 55.271912%, 69.334412%)" fill-opacity="1" d="M 1317.289062 617.589844 C 1299.558594 613.789062 1287.519531 599.179688 1284.25 581.039062 C 1279.921875 557.101562 1292.449219 536.078125 1320.199219 531.050781 L 1337.140625 527.238281 L 1337.140625 613.539062 L 1320.359375 616.949219 C 1319.320312 617.140625 1318.289062 617.359375 1317.289062 617.589844 "/>
<path fill-rule="nonzero" fill="rgb(30.589294%, 29.417419%, 27.830505%)" fill-opacity="1" d="M 1337.140625 697.160156 L 1337.140625 617.421875 L 1344.671875 615.738281 L 1344.671875 612.011719 L 1344.671875 695.765625 L 1337.140625 697.160156 "/>
<path fill-rule="nonzero" fill="rgb(13.719177%, 55.271912%, 69.334412%)" fill-opacity="1" d="M 1314.871094 702.855469 C 1298.558594 698.234375 1287.519531 684.183594 1284.398438 666.941406 C 1280.238281 643.921875 1291.679688 623.570312 1317.289062 617.589844 C 1320.238281 618.21875 1323.359375 618.558594 1326.609375 618.558594 C 1329.578125 618.558594 1332.660156 618.28125 1335.851562 617.699219 L 1337.140625 617.421875 L 1337.140625 697.160156 L 1327.601562 698.929688 C 1322.828125 699.695312 1318.578125 701.035156 1314.871094 702.855469 "/>
<path fill-rule="nonzero" fill="rgb(26.268005%, 24.31488%, 21.972656%)" fill-opacity="1" d="M 1337.140625 617.421875 L 1337.140625 613.539062 L 1344.671875 612.011719 L 1344.671875 615.738281 L 1337.140625 617.421875 "/>
<path fill-rule="nonzero" fill="rgb(11.767578%, 45.483398%, 54.492188%)" fill-opacity="1" d="M 1326.609375 618.558594 C 1323.359375 618.558594 1320.238281 618.21875 1317.289062 617.589844 C 1318.289062 617.359375 1319.320312 617.140625 1320.359375 616.949219 L 1337.140625 613.539062 L 1337.140625 617.421875 L 1335.851562 617.699219 C 1332.660156 618.28125 1329.578125 618.558594 1326.609375 618.558594 "/>
<path fill-rule="nonzero" fill="rgb(30.589294%, 29.417419%, 27.830505%)" fill-opacity="1" d="M 1337.140625 787.035156 L 1337.140625 785.480469 C 1338.320312 785.574219 1339.519531 785.621094 1340.75 785.621094 C 1341.78125 785.621094 1342.839844 785.585938 1343.898438 785.519531 L 1337.140625 787.035156 "/>
<path fill-rule="nonzero" fill="rgb(13.719177%, 55.271912%, 69.334412%)" fill-opacity="1" d="M 1318.730469 791.113281 C 1312.460938 789.980469 1306.878906 787.53125 1302.101562 784.070312 C 1303.550781 778.152344 1304.5 772.035156 1304.890625 765.773438 C 1311.71875 776.773438 1322.878906 784.382812 1337.140625 785.480469 L 1337.140625 787.035156 L 1320.328125 790.804688 C 1319.789062 790.902344 1319.261719 791.003906 1318.730469 791.113281 M 1298.128906 721.558594 C 1297.378906 719.605469 1296.570312 717.671875 1295.699219 715.777344 C 1298.738281 712.945312 1302.339844 710.515625 1306.488281 708.570312 C 1302.589844 712.195312 1299.789062 716.613281 1298.128906 721.558594 "/>
<path fill-rule="nonzero" fill="rgb(30.589294%, 29.417419%, 27.830505%)" fill-opacity="1" d="M 1326.78125 878.324219 C 1319.050781 878.320312 1312.128906 876.449219 1306.21875 873.144531 L 1337.140625 873.144531 L 1337.140625 790.777344 L 1344.671875 789.441406 L 1344.671875 785.464844 L 1344.671875 875.523438 L 1336 877.472656 C 1332.820312 878.046875 1329.738281 878.324219 1326.78125 878.324219 "/>
<path fill-rule="nonzero" fill="rgb(13.719177%, 55.271912%, 69.334412%)" fill-opacity="1" d="M 1337.140625 873.144531 L 1306.21875 873.144531 C 1294.660156 866.695312 1286.921875 854.800781 1284.378906 840.796875 C 1283.128906 833.84375 1283.289062 827.136719 1284.839844 820.996094 C 1289.078125 815.21875 1292.738281 808.996094 1295.738281 802.410156 C 1301.449219 797.0625 1309.140625 793.105469 1318.730469 791.113281 C 1321.308594 791.578125 1324 791.824219 1326.800781 791.824219 C 1329.449219 791.824219 1332.191406 791.605469 1335.019531 791.152344 L 1337.140625 790.777344 L 1337.140625 873.144531 "/>
<path fill-rule="nonzero" fill="rgb(26.268005%, 24.31488%, 21.972656%)" fill-opacity="1" d="M 1337.140625 790.777344 L 1337.140625 787.035156 L 1343.898438 785.519531 C 1344.160156 785.503906 1344.421875 785.484375 1344.671875 785.464844 L 1344.671875 789.441406 L 1337.140625 790.777344 "/>
<path fill-rule="nonzero" fill="rgb(11.767578%, 45.483398%, 54.492188%)" fill-opacity="1" d="M 1326.800781 791.824219 C 1324 791.824219 1321.308594 791.578125 1318.730469 791.113281 C 1319.261719 791.003906 1319.789062 790.902344 1320.328125 790.804688 L 1337.140625 787.035156 L 1337.140625 790.777344 L 1335.019531 791.152344 C 1332.191406 791.605469 1329.449219 791.824219 1326.800781 791.824219 "/>
<path fill-rule="nonzero" fill="rgb(97.264099%, 83.59375%, 67.381287%)" fill-opacity="1" d="M 1418.179688 551.640625 C 1411 528.28125 1396.371094 515.308594 1372.808594 516.988281 C 1370.171875 516.898438 1367.269531 517.058594 1363.878906 517.671875 L 1327.800781 525.730469 C 1304.070312 530.039062 1293.351562 548.019531 1297.050781 568.488281 C 1297.269531 569.699219 1297.628906 570.78125 1297.921875 571.921875 C 1298.039062 572.898438 1298.019531 573.851562 1298.199219 574.828125 C 1302.519531 598.761719 1322.058594 616.519531 1349.820312 611.511719 L 1391.988281 602.058594 C 1419.730469 597.050781 1422.519531 575.570312 1418.179688 551.640625 "/>
<path fill-rule="nonzero" fill="rgb(98.4375%, 89.0625%, 78.514099%)" fill-opacity="1" d="M 1327.371094 531.75 L 1363.449219 523.679688 C 1366.609375 523.109375 1369.398438 522.878906 1371.921875 522.929688 C 1395.800781 520.980469 1410.519531 534.109375 1417.75 557.660156 C 1418.808594 563.570312 1419.441406 569.308594 1419.378906 574.699219 C 1420.269531 567.660156 1419.660156 559.808594 1418.179688 551.640625 C 1410.941406 528.089844 1396.230469 514.980469 1372.328125 516.910156 C 1369.820312 516.859375 1367.039062 517.089844 1363.878906 517.671875 L 1327.800781 525.730469 C 1306.828125 529.519531 1296.070312 544.019531 1296.378906 561.460938 C 1298.410156 546.789062 1308.878906 535.101562 1327.371094 531.75 "/>
<path fill-rule="nonzero" fill="rgb(93.75%, 78.90625%, 61.131287%)" fill-opacity="1" d="M 1434.898438 634.878906 C 1427.03125 609.25 1410.339844 595.921875 1382.578125 600.941406 L 1334.308594 610.75 C 1306.550781 615.769531 1294.019531 636.808594 1298.359375 660.738281 C 1302.671875 684.667969 1322.21875 702.421875 1349.96875 697.414062 L 1398.261719 687.597656 C 1426 682.589844 1439.25 658.789062 1434.898438 634.878906 "/>
<path fill-rule="nonzero" fill="rgb(97.264099%, 83.59375%, 67.381287%)" fill-opacity="1" d="M 1408.839844 632.28125 C 1402.300781 610.980469 1398.878906 597.578125 1375.78125 601.761719 L 1326.929688 611.828125 C 1303.851562 616.011719 1293.441406 633.511719 1297.03125 653.410156 C 1300.621094 673.320312 1316.878906 688.097656 1339.960938 683.921875 L 1388.820312 673.828125 C 1411.890625 669.660156 1412.449219 652.179688 1408.839844 632.28125 "/>
<path fill-rule="nonzero" fill="rgb(93.75%, 78.90625%, 61.131287%)" fill-opacity="1" d="M 1435.199219 724.339844 C 1427.851562 698.5625 1411.441406 684.914062 1383.578125 689.378906 L 1335.058594 697.996094 C 1307.21875 702.457031 1294.21875 723.109375 1298.058594 747.121094 C 1301.910156 771.117188 1321.140625 789.40625 1348.980469 784.949219 L 1397.488281 776.308594 C 1425.328125 771.867188 1439.050781 748.351562 1435.199219 724.339844 "/>
<path fill-rule="nonzero" fill="rgb(97.264099%, 83.59375%, 67.381287%)" fill-opacity="1" d="M 1408.960938 721.210938 C 1402.851562 699.8125 1399.671875 686.164062 1376.558594 689.859375 L 1327.601562 698.929688 C 1304.488281 702.640625 1293.691406 719.777344 1296.878906 739.71875 C 1300.070312 759.652344 1316.03125 774.828125 1339.148438 771.132812 L 1388.109375 762.046875 C 1411.21875 758.355469 1412.160156 741.132812 1408.960938 721.210938 "/>
<path fill-rule="nonzero" fill="rgb(93.75%, 78.90625%, 61.131287%)" fill-opacity="1" d="M 1418.308594 811.40625 C 1410.460938 785.796875 1393.769531 772.464844 1366.011719 777.492188 L 1334.289062 784.613281 C 1306.53125 789.640625 1294 810.675781 1298.328125 834.605469 C 1302.660156 858.519531 1322.210938 876.289062 1349.949219 871.265625 L 1381.671875 864.125 C 1409.410156 859.117188 1422.660156 835.335938 1418.308594 811.40625 "/>
<path fill-rule="nonzero" fill="rgb(97.264099%, 83.59375%, 67.381287%)" fill-opacity="1" d="M 1395.601562 808.394531 C 1389.019531 786.976562 1385.53125 773.53125 1362.328125 777.742188 L 1327.078125 785.613281 C 1303.890625 789.824219 1293.421875 807.394531 1297.03125 827.398438 C 1300.640625 847.386719 1316.980469 862.246094 1340.171875 858.050781 L 1364.960938 852.460938 C 1388.160156 848.265625 1399.21875 828.382812 1395.601562 808.394531 "/>
<path fill-rule="nonzero" fill="rgb(98.4375%, 89.0625%, 78.514099%)" fill-opacity="1" d="M 1327.679688 619.03125 L 1376.539062 608.96875 C 1378.789062 608.570312 1380.800781 608.371094 1382.699219 608.28125 L 1383.351562 608.148438 C 1411.070312 603.140625 1427.75 616.421875 1435.621094 641.980469 C 1435.539062 639.628906 1435.339844 637.261719 1434.898438 634.878906 C 1427.03125 609.25 1410.339844 595.921875 1382.578125 600.941406 L 1381.949219 601.078125 C 1380.050781 601.160156 1378.039062 601.359375 1375.78125 601.761719 L 1326.929688 611.828125 C 1303.851562 616.011719 1293.441406 633.511719 1297.03125 653.410156 C 1297.058594 653.609375 1297.128906 653.800781 1297.160156 654 C 1296.761719 636.941406 1307.21875 622.738281 1327.679688 619.03125 "/>
<path fill-rule="nonzero" fill="rgb(98.4375%, 89.0625%, 78.514099%)" fill-opacity="1" d="M 1328.351562 706.136719 L 1377.308594 697.0625 C 1380.21875 696.597656 1382.820312 696.417969 1385.148438 696.484375 C 1412.289062 692.453125 1428.410156 705.835938 1435.769531 730.964844 C 1435.699219 728.765625 1435.550781 726.554688 1435.199219 724.339844 C 1427.929688 698.828125 1411.738281 685.214844 1384.398438 689.277344 C 1382.070312 689.210938 1379.46875 689.394531 1376.558594 689.859375 L 1327.601562 698.929688 C 1304.488281 702.640625 1293.691406 719.777344 1296.878906 739.71875 C 1296.980469 740.296875 1297.109375 740.863281 1297.230469 741.445312 C 1296.699219 723.925781 1307.398438 709.496094 1328.351562 706.136719 "/>
<path fill-rule="nonzero" fill="rgb(55.664062%, 55.664062%, 55.664062%)" fill-opacity="1" d="M 1169.609375 914.265625 C 1169.609375 914.550781 1169.75 914.832031 1169.789062 915.113281 C 1169.871094 914.082031 1169.910156 913.050781 1170.101562 912.070312 C 1169.789062 912.785156 1169.609375 913.519531 1169.609375 914.265625 "/>
<path fill-rule="nonzero" fill="rgb(55.664062%, 55.664062%, 55.664062%)" fill-opacity="1" d="M 1221.320312 914.265625 C 1221.320312 913.519531 1221.140625 912.785156 1220.828125 912.070312 C 1221.019531 913.050781 1221.058594 914.082031 1221.140625 915.113281 C 1221.179688 914.832031 1221.320312 914.550781 1221.320312 914.265625 "/>
<path fill-rule="nonzero" fill="rgb(26.268005%, 70.896912%, 90.234375%)" fill-opacity="1" d="M 1186.710938 863.011719 C 1135.371094 856.304688 1095.589844 812.277344 1095.589844 759.136719 C 1095.589844 701.375 1142.578125 654.378906 1200.351562 654.378906 C 1242.648438 654.378906 1279.179688 679.589844 1295.699219 715.777344 C 1285.769531 725.019531 1281.75 738.527344 1284.121094 753.3125 C 1286.148438 766.003906 1292.480469 777.09375 1302.101562 784.070312 C 1300.539062 790.429688 1298.398438 796.5625 1295.738281 802.410156 C 1290.289062 807.511719 1286.628906 813.871094 1284.839844 820.996094 C 1280.148438 827.382812 1274.761719 833.21875 1268.769531 838.390625 L 1260.75 814.101562 C 1273.980469 799.574219 1282.050781 780.28125 1282.050781 759.136719 C 1282.050781 714.070312 1245.390625 677.410156 1200.351562 677.410156 C 1155.28125 677.410156 1118.628906 714.070312 1118.628906 759.136719 C 1118.628906 796.714844 1144.128906 828.453125 1178.75 837.949219 L 1186.710938 863.011719 "/>
<path fill-rule="nonzero" fill="rgb(24.31488%, 60.742188%, 72.851562%)" fill-opacity="1" d="M 1302.101562 784.070312 C 1292.480469 777.09375 1286.148438 766.003906 1284.121094 753.3125 C 1281.75 738.527344 1285.769531 725.019531 1295.699219 715.777344 C 1296.570312 717.671875 1297.378906 719.605469 1298.128906 721.558594 C 1296.941406 725.113281 1296.328125 728.945312 1296.328125 732.953125 C 1296.328125 735.160156 1296.511719 737.417969 1296.878906 739.71875 C 1297.070312 740.898438 1297.300781 742.0625 1297.578125 743.207031 C 1297.691406 744.5 1297.851562 745.804688 1298.058594 747.121094 C 1299.148438 753.925781 1301.480469 760.273438 1304.890625 765.773438 C 1304.5 772.035156 1303.550781 778.152344 1302.101562 784.070312 "/>
<path fill-rule="nonzero" fill="rgb(24.31488%, 60.742188%, 72.851562%)" fill-opacity="1" d="M 1284.839844 820.996094 C 1286.628906 813.871094 1290.289062 807.511719 1295.738281 802.410156 C 1292.738281 808.996094 1289.078125 815.21875 1284.839844 820.996094 "/>
<path fill-rule="nonzero" fill="rgb(94.53125%, 81.639099%, 65.818787%)" fill-opacity="1" d="M 1304.890625 765.773438 C 1301.480469 760.273438 1299.148438 753.925781 1298.058594 747.121094 C 1297.851562 745.804688 1297.691406 744.5 1297.578125 743.207031 C 1299 749.054688 1301.558594 754.390625 1305.101562 758.824219 C 1305.101562 758.929688 1305.101562 759.03125 1305.101562 759.136719 C 1305.101562 761.363281 1305.03125 763.578125 1304.890625 765.773438 "/>
<path fill-rule="nonzero" fill="rgb(97.65625%, 85.546875%, 71.289062%)" fill-opacity="1" d="M 1305.101562 758.824219 C 1301.558594 754.390625 1299 749.054688 1297.578125 743.207031 C 1297.300781 742.0625 1297.070312 740.898438 1296.878906 739.71875 C 1296.980469 740.296875 1297.109375 740.863281 1297.230469 741.445312 C 1297.070312 736.078125 1297.960938 730.996094 1299.878906 726.441406 C 1303.230469 736.636719 1305.070312 747.523438 1305.101562 758.824219 "/>
<path fill-rule="nonzero" fill="rgb(98.4375%, 90.234375%, 81.25%)" fill-opacity="1" d="M 1297.230469 741.445312 C 1297.109375 740.863281 1296.980469 740.296875 1296.878906 739.71875 C 1296.511719 737.417969 1296.328125 735.160156 1296.328125 732.953125 C 1296.328125 728.945312 1296.941406 725.113281 1298.128906 721.558594 C 1298.75 723.167969 1299.328125 724.792969 1299.878906 726.441406 C 1297.960938 730.996094 1297.070312 736.078125 1297.230469 741.445312 "/>
<path fill-rule="nonzero" fill="rgb(43.138123%, 77.734375%, 92.1875%)" fill-opacity="1" d="M 1168.738281 806.410156 C 1153.511719 796.207031 1143.480469 778.839844 1143.480469 759.136719 C 1143.480469 727.734375 1168.941406 702.273438 1200.351562 702.273438 C 1231.75 702.273438 1257.210938 727.734375 1257.210938 759.136719 C 1257.210938 768.386719 1255 777.121094 1251.078125 784.839844 L 1243.839844 762.929688 C 1236.25 745.011719 1221.660156 731.347656 1202.921875 731.347656 C 1198.628906 731.347656 1194.121094 732.0625 1189.429688 733.609375 C 1167.300781 740.910156 1154.03125 767.488281 1163.371094 789.511719 L 1168.738281 806.410156 "/>
<path fill-rule="nonzero" fill="rgb(98.4375%, 89.0625%, 78.514099%)" fill-opacity="1" d="M 1273.800781 1140.371094 L 1273.78125 1140.300781 L 1273.800781 1140.371094 "/>
<path fill-rule="nonzero" fill="rgb(97.264099%, 83.59375%, 67.381287%)" fill-opacity="1" d="M 1660.269531 1396.789062 L 1412.800781 1473.78125 L 1377.308594 1366.328125 C 1373.109375 1353.660156 1367.71875 1341.828125 1356.421875 1334.71875 C 1348.050781 1329.449219 1280.558594 1283.980469 1245.578125 1263.351562 C 1200.988281 1213.671875 1171.351562 1180.910156 1171.351562 1180.910156 C 1168.679688 1177 1166.378906 1172.839844 1164.488281 1168.511719 L 1141.328125 1119.269531 L 1095.589844 1080.191406 L 1091.851562 1077 L 1091.75 1076.738281 C 1085.75 1060.171875 1122.609375 1024.410156 1171.851562 1040.171875 C 1171.851562 1040.171875 1212.921875 1048.738281 1235.710938 1111.648438 C 1245.5 1121.308594 1262.441406 1138.070312 1278.039062 1151.140625 C 1278.378906 1151.421875 1278.71875 1151.710938 1279.058594 1151.988281 L 1257.011719 1084.410156 L 1163.371094 789.511719 C 1154.03125 767.488281 1167.300781 740.910156 1189.429688 733.609375 C 1214.609375 725.308594 1234.511719 740.910156 1243.839844 762.929688 L 1318.699219 989.480469 C 1318.699219 989.480469 1319.261719 991.261719 1320.601562 993.390625 L 1304.789062 945.519531 C 1295.449219 923.480469 1308.710938 896.929688 1330.851562 889.621094 C 1355.351562 881.519531 1374.890625 896.121094 1384.511719 917.230469 C 1381.960938 897.738281 1394.390625 877.5 1413.25 871.269531 C 1438.429688 862.941406 1458.328125 878.550781 1467.671875 900.570312 L 1491.269531 972.011719 C 1491.621094 971.949219 1491.96875 971.890625 1492.320312 971.839844 L 1475.761719 921.691406 C 1466.800781 900.589844 1480.5 878.140625 1501.699219 871.128906 C 1525.808594 863.179688 1543.890625 875.140625 1552.839844 896.230469 L 1573.769531 959.609375 C 1583.019531 987.179688 1590.820312 1010.78125 1597.390625 1031.140625 L 1605.03125 1054.25 L 1604.78125 1054.328125 C 1632.878906 1143.820312 1632.320312 1159.621094 1630.800781 1194.359375 C 1630.191406 1208.78125 1624.25 1223.210938 1622.148438 1235.089844 C 1618.648438 1254.929688 1617.238281 1266.53125 1623.558594 1285.648438 L 1660.269531 1396.789062 "/>
<path fill-rule="nonzero" fill="rgb(56.054688%, 41.575623%, 69.334412%)" fill-opacity="1" d="M 1384.511719 917.230469 C 1384.5 917.21875 1384.5 917.207031 1384.488281 917.195312 C 1381.96875 897.714844 1394.398438 877.492188 1413.25 871.265625 C 1415.289062 870.589844 1417.289062 870.074219 1419.261719 869.707031 C 1417.289062 870.078125 1415.289062 870.59375 1413.25 871.269531 C 1394.390625 877.5 1381.960938 897.738281 1384.511719 917.230469 "/>
<path fill-rule="nonzero" fill="rgb(83.201599%, 68.554688%, 52.929688%)" fill-opacity="1" d="M 1409.871094 995.808594 L 1387.191406 927.164062 C 1385.820312 923.914062 1384.929688 920.566406 1384.488281 917.195312 C 1384.5 917.207031 1384.5 917.21875 1384.511719 917.230469 C 1381.960938 897.738281 1394.390625 877.5 1413.25 871.269531 C 1415.289062 870.59375 1417.289062 870.078125 1419.261719 869.707031 C 1421.78125 869.238281 1424.25 869.015625 1426.640625 869.015625 C 1430.601562 869.015625 1434.371094 869.625 1437.929688 870.75 C 1436.269531 870.523438 1434.558594 870.40625 1432.828125 870.40625 C 1428.570312 870.40625 1424.101562 871.109375 1419.441406 872.644531 C 1397.328125 879.953125 1392.980469 903.28125 1400.46875 926.214844 C 1400.46875 926.214844 1418.578125 981.011719 1420.621094 987.238281 C 1422.691406 993.445312 1409.871094 995.808594 1409.871094 995.808594 "/>
<path fill-rule="nonzero" fill="rgb(56.054688%, 41.575623%, 69.334412%)" fill-opacity="1" d="M 1320.601562 993.390625 C 1319.261719 991.261719 1318.699219 989.480469 1318.699219 989.480469 L 1311.691406 968.265625 L 1312.300781 968.265625 L 1320.601562 993.390625 "/>
<path fill-rule="nonzero" fill="rgb(30.589294%, 29.417419%, 27.830505%)" fill-opacity="1" d="M 1312.300781 968.265625 L 1311.691406 968.265625 L 1299.191406 930.433594 C 1298.589844 912.175781 1310.609375 894.09375 1328.25 888.265625 C 1332.910156 886.722656 1337.378906 886.015625 1341.640625 886.015625 C 1345.601562 886.015625 1349.371094 886.625 1352.929688 887.75 C 1351.269531 887.523438 1349.570312 887.40625 1347.828125 887.40625 C 1347.449219 887.40625 1347.058594 887.410156 1346.679688 887.421875 C 1345.910156 887.375 1345.128906 887.351562 1344.339844 887.351562 C 1340.050781 887.351562 1335.539062 888.070312 1330.851562 889.621094 C 1308.710938 896.929688 1295.449219 923.480469 1304.789062 945.519531 L 1312.300781 968.265625 "/>
<path fill-rule="nonzero" fill="rgb(83.201599%, 68.554688%, 52.929688%)" fill-opacity="1" d="M 1324.871094 1012.808594 L 1302.191406 944.164062 C 1300.300781 939.707031 1299.339844 935.066406 1299.191406 930.433594 L 1311.691406 968.265625 L 1318.699219 989.480469 C 1318.699219 989.480469 1319.261719 991.261719 1320.601562 993.390625 L 1312.300781 968.265625 L 1304.789062 945.519531 C 1295.449219 923.480469 1308.710938 896.929688 1330.851562 889.621094 C 1335.539062 888.070312 1340.050781 887.351562 1344.339844 887.351562 C 1345.128906 887.351562 1345.910156 887.375 1346.679688 887.421875 C 1342.769531 887.539062 1338.679688 888.246094 1334.441406 889.644531 C 1312.328125 896.953125 1307.980469 920.28125 1315.46875 943.214844 C 1315.46875 943.214844 1333.578125 998.015625 1335.621094 1004.238281 C 1337.691406 1010.441406 1324.871094 1012.808594 1324.871094 1012.808594 "/>
<path fill-rule="nonzero" fill="rgb(56.054688%, 41.575623%, 69.334412%)" fill-opacity="1" d="M 1492.320312 971.839844 L 1475.710938 921.570312 C 1475.730469 921.613281 1475.738281 921.652344 1475.761719 921.691406 L 1492.320312 971.839844 "/>
<path fill-rule="nonzero" fill="rgb(83.201599%, 68.554688%, 52.929688%)" fill-opacity="1" d="M 1494.160156 977.421875 L 1492.320312 971.839844 L 1475.761719 921.691406 C 1475.738281 921.652344 1475.730469 921.613281 1475.710938 921.570312 L 1474.089844 916.679688 C 1472.550781 910.652344 1472.710938 904.648438 1474.261719 899.007812 C 1477.871094 887.289062 1487.839844 875.839844 1501.980469 871.050781 C 1503.671875 870.515625 1505.308594 870.050781 1507.03125 869.683594 C 1508.390625 869.382812 1509.710938 869.199219 1511.019531 869.035156 C 1512.359375 868.890625 1513.679688 868.824219 1514.96875 868.824219 C 1516.699219 868.824219 1518.398438 868.945312 1520.058594 869.183594 C 1516.101562 869.367188 1511.929688 870.03125 1507.539062 871.5 C 1486.359375 878.488281 1481.960938 897.109375 1489.199219 919.523438 L 1506.890625 973.074219 C 1499.339844 976.871094 1494.160156 977.421875 1494.160156 977.421875 "/>
<path fill-rule="nonzero" fill="rgb(93.75%, 78.90625%, 61.131287%)" fill-opacity="1" d="M 1163.371094 789.507812 L 1279.058594 1151.988281 C 1278.808594 1151.75 1278.53125 1151.488281 1278.261719 1151.25 L 1286.980469 1179.679688 C 1293.171875 1177.410156 1290.71875 1168.039062 1288.808594 1162.089844 L 1165.859375 778.472656 C 1163.398438 769.9375 1162.480469 766.140625 1163.019531 759.953125 C 1159.570312 769.335938 1159.269531 779.855469 1163.371094 789.507812 "/>
<path fill-rule="nonzero" fill="rgb(74.021912%, 80.076599%, 83.201599%)" fill-opacity="1" d="M 1530.058594 1523.269531 L 1693.738281 1469.429688 L 1634.601562 1289.578125 L 1356.558594 1381.019531 L 1403.328125 1523.269531 L 1530.058594 1523.269531 "/>
<path fill-rule="nonzero" fill="rgb(91.014099%, 36.473083%, 36.473083%)" fill-opacity="1" d="M 1779 1631 L 1686.769531 1351.128906 L 1365.328125 1456.851562 L 1412 1635 L 1779 1631 "/>
<path fill-rule="nonzero" fill="rgb(82.03125%, 32.93457%, 32.93457%)" fill-opacity="1" d="M 1632 1632 L 1571.578125 1389.019531 L 1686.769531 1351.128906 L 1779 1631 L 1632 1632 "/>
<path fill-rule="nonzero" fill="rgb(100%, 100%, 100%)" fill-opacity="1" d="M 1674.351562 1424.589844 C 1683.511719 1417.109375 1684.871094 1403.628906 1677.398438 1394.480469 C 1669.929688 1385.328125 1656.449219 1383.960938 1647.289062 1391.441406 C 1638.140625 1398.921875 1636.78125 1412.410156 1644.25 1421.558594 C 1651.71875 1430.710938 1665.199219 1432.058594 1674.351562 1424.589844 "/>
<path fill-rule="nonzero" fill="rgb(100%, 100%, 100%)" fill-opacity="1" d="M 1695.351562 1490.589844 C 1704.511719 1483.109375 1705.871094 1469.628906 1698.398438 1460.480469 C 1690.929688 1451.328125 1677.449219 1449.960938 1668.289062 1457.441406 C 1659.140625 1464.921875 1657.78125 1478.410156 1665.25 1487.558594 C 1672.71875 1496.710938 1686.199219 1498.058594 1695.351562 1490.589844 "/>
<path fill-rule="nonzero" fill="rgb(93.75%, 78.90625%, 61.131287%)" fill-opacity="1" d="M 1287 1180 C 1287 1180 1240 1125 1230 1115 C 1222.121094 1107.121094 1214 1041 1142 1044 C 1127.589844 1044.601562 1096 1051 1095.589844 1080.191406 L 1091.75 1076.738281 C 1085.75 1060.171875 1122.609375 1024.410156 1171.851562 1040.171875 C 1171.851562 1040.171875 1212.921875 1048.738281 1235.710938 1111.648438 C 1245.5 1121.308594 1262.441406 1138.070312 1278.039062 1151.140625 L 1287 1180 "/>
<path fill-rule="nonzero" fill="rgb(93.75%, 78.90625%, 61.131287%)" fill-opacity="1" d="M 1033.109375 625.089844 L 1032.761719 949.410156 C 1032.761719 949.410156 1021 696 1023 677 C 1025 658 1017 665 1002 668 C 987 671 989 657 987 627 C 985 597 1011 556 1018 503 C 1025 450 968.691406 442.46875 968.691406 442.46875 L 968.71875 442.449219 C 990.101562 438.800781 1022.03125 448.050781 1030.78125 490.308594 C 1030.78125 490.308594 1035.648438 521.46875 1027.929688 561.648438 C 1024.441406 579.859375 1016.46875 589.75 1008.410156 612.828125 C 1006.070312 645.730469 1008.410156 642.75 1008.410156 642.75 L 1033.109375 625.089844 "/>
</svg>
